<svg xmlns="http://www.w3.org/2000/svg"  width="22px" height="22px" viewBox="0 0 95.4 103"><defs><style>.cls-1{fill:#1375be;}</style></defs><g id="Layer_2" data-name="Layer 2"><g id="Layer_1-2" data-name="Layer 1"><path class="cls-1" d="M0,43C0,29.6.1,16.3,0,2.9,0,.7.7,0,2.9,0H61.8c2.1,0,2.8.8,2.7,2.8,0,4.8,0,4.8,4.6,5.1,2,.1,2.9.8,2.9,2.9-.1,5.2,0,10.4-.1,15.6a4.5,4.5,0,0,0,1.9,3.8C81,36.1,86.2,43.4,87.7,52.7c.9,5.3-.2,10.5-.8,15.7a20.9,20.9,0,0,0,3.6,15.3c1.5,2.1,2.8,4.3,4.3,6.5s.8,2.5-.6,3.4l-14,8.9c-1.2.9-2.3.5-3.2-.8L72.6,95c-.4-.6-.6-1.4-1.7-1.2-6,.8-12,.3-18.1.3H11.6c-4.2,0-4.4-.2-4.4-4.4v-2c.2-1.3-.3-1.8-1.6-1.8C0,85.7,0,85.7,0,80.2Zm3.6.1c0,12.3.1,24.6,0,37,0,1.6.3,2.3,2.2,2.3q26.5-.2,53.1,0c1.9,0,2.7-.5,1.8-2.4a21.9,21.9,0,0,1-1.4-5.6c-.3-2.9-.1-5.9-1.7-8.5A36,36,0,0,1,55,60.7a2.3,2.3,0,0,0-2.6-1.6c-7,.1-14.1,0-21.1,0H22.4c-1,0-1.7-.4-1.7-1.6a1.6,1.6,0,0,1,1.5-1.9H51.9c1.2,0,2.2,0,2.9-1.4A3.7,3.7,0,0,1,58.9,52c2.1.4,2.3-.6,2.2-2.3,0-14.4,0-28.8.1-43.3,0-2.1-.4-2.8-2.7-2.8-17.5.1-34.9.1-52.4,0-1.9,0-2.5.4-2.5,2.5C3.7,18.4,3.6,30.7,3.6,43.1Zm68.6-9.5c.2,3.5-1.2,7.1.3,10.4a38.1,38.1,0,0,1,3,8.8c.8,4.4,1.3,8.9-.7,13.3s-4.3,4.3-6.9.9a44.2,44.2,0,0,1-4.4-7.6,6.5,6.5,0,0,0-3.2-3.5A1.8,1.8,0,0,0,58,56c-.7.6-.5,1.3-.1,2s1.3,3.1,2.1,4.6,2.8,5,2.7,8a19,19,0,0,0,6.7,15.3A33.3,33.3,0,0,1,73,89.8c.7.8,1.2.8,2.1.2l9.1-5.8c1.5-.8,1.4-1.7.9-3a28.3,28.3,0,0,1-1.5-15.5c.5-3.8,1.4-7.6.8-11.5C83.2,45.7,78.5,39.3,72.2,33.6ZM68.4,90c-2-1.2-2.6-4-5.3-4H12.8c-.7,0-1.7-.4-2,.8-.7,2.7.1,3.7,2.7,3.8H65.9A3.1,3.1,0,0,0,68.4,90Zm-.1-30V13.9c0-1.2.3-2.4-1.8-2.4s-2,1.1-2,2.5c0,11.3.2,22.7-.1,34C64.3,52.4,65,56.3,68.3,60ZM91.1,91a12.7,12.7,0,0,1-1.3-1.9C88,86.3,88,86.3,85.2,88l-5.6,3.4c-3.9,2.5-3.9,2.5-1.1,6.2.7.9,1.2,1,2.2.4L90,92A1.8,1.8,0,0,0,91.1,91Z"/><path class="cls-1" d="M33.4,10.8H53.8c1.2,0,2.7-.3,2.8,1.6s-1.4,2-2.8,2h-41c-1.5,0-3-.2-2.9-2s1.5-1.7,2.9-1.6Z"/><path class="cls-1" d="M33.1,23.3H12.7c-1.3,0-2.7-.2-2.8-1.7s1.3-1.9,2.7-1.9H53.7a2.8,2.8,0,0,1,2.7,1c.8,1.3-.1,2.6-2.1,2.6Z"/><path class="cls-1" d="M33.4,28.8H53.5c1.3,0,3.2-.4,3.1,1.8s-1.7,1.8-3,1.8H12.1c-1.2,0-2.2-.6-2.2-1.9s1.1-1.7,2.4-1.7H33.4Z"/><path class="cls-1" d="M33.4,68H13.1c-1.3,0-2.6.1-2.7-1.6s1.3-1.9,2.7-1.9H53.8c1.4,0,2.7.3,2.7,2s-1.3,1.7-2.7,1.6Z"/><path class="cls-1" d="M33.1,76.8H13c-1.2,0-2.6,0-2.6-1.6s1.3-2,2.7-2H53.6c1.4,0,2.8.3,2.9,1.8s-1.6,1.8-3,1.8Z"/><path class="cls-1" d="M33.5,41.5H13.1c-1.2,0-2.6.1-2.7-1.5s1.2-2.1,2.6-2.1H53.3l1.4.2c1.1.1,1.9.6,1.8,1.7s-1,1.6-2.2,1.6H33.5Z"/><path class="cls-1" d="M38.4,50.4h-15c-1.3,0-2.7.2-2.7-1.7s1.4-1.9,2.6-1.9H54.4c1.2.1,2.1.6,2.1,1.8s-.9,1.8-2.2,1.8Z"/><path class="cls-1" d="M16.4,48.6c-.2,1.4-1,2-2.1,1.9a1.6,1.6,0,0,1-1.8-1.9A1.7,1.7,0,0,1,14.4,47,2.1,2.1,0,0,1,16.4,48.6Z"/><path class="cls-1" d="M16.3,57.5a1.7,1.7,0,0,1-2,1.6,1.6,1.6,0,0,1-1.8-1.6,1.9,1.9,0,0,1,1.9-1.9A1.8,1.8,0,0,1,16.3,57.5Z"/></g></g></svg>