<svg xmlns="http://www.w3.org/2000/svg" width="22px" height="22px" viewBox="0 0 95.8 92.1"><defs><style>.cls-1{fill:#1375be;}</style></defs><g id="Layer_2" data-name="Layer 2"><g id="Layer_1-2" data-name="Layer 1"><path class="cls-1" d="M22.3,62.7c2.7,1.1,4.4,2.7,4.7,5.5.7,5.9-1.7,8.6-7.7,8.6-2.2,0-4.5.1-6.8,0s-5.6-1.6-6.4-4.4,0-6.8,2.6-8.7l1.3-.8a11.5,11.5,0,0,0-2-.4c-2.9.2-5.3-.8-6.3-3.6S.4,52.5,2.9,50s1.2-1.6-.2-2.7c-3.5-2.4-3.6-9-.2-12,1-.9,1.2-1.1,0-2.1S-.8,25.8,1.1,22.8A5.2,5.2,0,0,1,5.8,20H21.3a5.2,5.2,0,0,1,5.4,4.4c.6,3.3.7,6.5-2.3,8.9-.9.7-.9.9-.1,1.7a8.2,8.2,0,0,1,0,12.4c-.8.8-.8,1,0,1.7C28.8,53.3,28,59.4,22.3,62.7ZM13.4,32.3c2.5,0,4.9.1,7.3,0s4.2-1.5,4.2-5.1-1.1-5-4.1-5.1c-4.8-.1-9.7-.1-14.5,0-2.9.1-4.2,1.7-4.1,5.2s1.3,4.9,4.2,5Zm.4,3.9H10c-1.2,0-2.5-.1-3.8,0-2.8.1-4.1,1.7-4,5.2s1.2,4.9,4,4.9c4.8.1,9.7.1,14.6,0,3,0,4.1-1.4,4.1-5s-1.1-5-4.1-5.1S16.1,36.2,13.8,36.2Zm.3,24.3c2.3,0,4.5.1,6.8-.1s4-1.6,4-4.9-1.1-5.1-4-5.2c-4.5-.2-9-.2-13.5-.1-3,.1-4.2,1.7-4.2,5.1s1.2,5,4.1,5.2S11.8,60.5,14.1,60.5Zm2.3,14.3h0c1.5,0,3.1.1,4.6,0s4-1.7,4-4.8-1-5-3.8-5.1a75.3,75.3,0,0,0-9.5,0C9.1,65,8,66.7,8,69.8s1.2,4.7,3.8,5S14.9,74.8,16.4,74.8Z"/><path class="cls-1" d="M84.3,20.2c0,2.1.1,4.1,0,6.2s-.2,2.1-4.4,2.5c-2.2.2-1-1.7-1.1-2.6a23,23,0,0,1,.2-3.7c.1-4.9.8-4.3-4.1-4.6A86.5,86.5,0,0,1,66,16.9,31.1,31.1,0,0,1,50.1,9.3c-.8-.7-1.5-1.5-2.7-.4-6,5.7-13.5,7.4-21.4,7.8l-5.1.2c-1.2,0-2.3-.1-3.3,1.2s-2.8.7-4.2.5-.7-1.5-1-2.4,0-.3,0-.5c-.2-3.6-.2-3.5,3.3-3.7a145.2,145.2,0,0,0,14.8-1.1A24.9,24.9,0,0,0,47.2,1.2c.6-.8,1.3-2,2.4-.4C56.1,9.4,65.5,11.6,75.5,12h7.6c1.4,0,1.9.6,1.8,2l-.3,6.2Z"/><path class="cls-1" d="M83,52.6c-.6,4.4-1.1,8.9-1.9,13.4-1.3,6.9-4.7,12.6-10.9,16s-13.6,6.6-20.5,9.8a3,3,0,0,1-2.1.1c-7.9-3-15.8-6.1-22.7-11.2a9.3,9.3,0,0,1-1.8-1.6c-.2-.3-.2-1,.1-1.2a31.7,31.7,0,0,1,3.6-2.3c.3-.2,1.1.1,1.5.4,5.5,4.5,12,7.3,18.6,9.8a5.5,5.5,0,0,0,3.1.1c4.9-2.2,9.9-4.4,14.7-7,7-3.9,10.8-10.1,11.7-18.1.3-3.6.7-7.2,1-10.8.1-1.3.5-1.9,1.8-1.3h.5C83,49.4,83,49.4,83,52.6Z"/><path class="cls-1" d="M45,41.8c0-4.5,0-9-.1-13.5,0-1.8.6-2.4,2.3-2.4,5.8.1,4.9-.4,4.9,4.7.1,8.1,0,16.2,0,24.3,0,3.1,0,3.1-3.1,3.1-4.7,0-4,.5-4-4S45,45.8,45,41.8Z"/><path class="cls-1" d="M84.6,47.7h-3a8.5,8.5,0,0,1-8.3-8.6A8.4,8.4,0,0,1,81,30.2a40.8,40.8,0,0,1,7.8.1c4.7.7,7.3,4.2,7,9.3a8.1,8.1,0,0,1-7.9,8Zm-.1-2.1h2.7c4.1-.1,6.6-2.7,6.6-6.7s-2.4-6.6-6.5-6.7a52.3,52.3,0,0,0-5.6,0,6.4,6.4,0,0,0-6.4,6.9,6.5,6.5,0,0,0,6.5,6.5Z"/><path class="cls-1" d="M45,64.2c0-3.5,0-3.5,3.7-3.5s3.4,0,3.4,3.6,0,3.6-3.8,3.5S44.9,67.8,45,64.2Z"/></g></g></svg>