<svg xmlns="http://www.w3.org/2000/svg"  width="22px" height="22px" viewBox="0 0 87.2 84.8"><defs><style>.cls-1{fill:#1375be;}</style></defs><g id="Layer_2" data-name="Layer 2"><g id="Layer_1-2" data-name="Layer 1"><path class="cls-1" d="M63.1,51.2c-13.5,7.6-27.6,2.6-34.6-7A26.2,26.2,0,0,1,63.7,6.7,25.4,25.4,0,0,1,75.2,23a26.1,26.1,0,0,1-3.1,19.4L81.8,52l3.4,3.5a6.3,6.3,0,0,1,.1,9.2,6.5,6.5,0,0,1-9.2,0L64.8,53.4C64.2,52.8,63.8,52,63.1,51.2ZM49.8,6.3A22.4,22.4,0,0,0,27.2,28.8a22.5,22.5,0,1,0,45,0A22.2,22.2,0,0,0,49.8,6.3Z"/><path class="cls-1" d="M28,8.4l-2.7,3.4H13.2V80.7H62.9V57h.3L66,60.4l.6-.4V82.2c0,1.7-.8,2.6-2.7,2.6H12.8c-2.9,0-3.6-.7-3.6-3.7V11.4a8.6,8.6,0,0,1,.1-1.6,1.9,1.9,0,0,1,1.9-1.7H27.5Z"/><path class="cls-1" d="M40.5.3,33.6,3.7a3.9,3.9,0,0,1-1.9.2H4.1V72.6l2.4.4v3.6c-1.6,0-3.1.1-4.6,0A2.3,2.3,0,0,1,0,74.4V3.6A8.6,8.6,0,0,1,.1,2,2.3,2.3,0,0,1,2.2,0H40.5Z"/><path class="cls-1" d="M58.5,59.9c-.8,1.3-1.8,1-2.6,1H24.3c-1.6,0-3.3.1-4.9,0a8.5,8.5,0,0,1-1.7-.4c-.2-1,.2-1.5,1-1.6H57.3A5.3,5.3,0,0,1,58.5,59.9Z"/><path class="cls-1" d="M58.7,67.3l-1.4.9H19.8c-.8,0-1.7.3-2.1-.7s.5-1.2,1.1-1.3H55.5a4.3,4.3,0,0,1,1.6.1A5,5,0,0,1,58.7,67.3Z"/><path class="cls-1" d="M58.4,74.7a14.8,14.8,0,0,1-1.3.8H19.9c-.8,0-1.8.3-2.3-1.1l1.2-.8a2.5,2.5,0,0,1,1.2-.1H55.9C56.7,73.5,57.8,73.3,58.4,74.7Z"/><path class="cls-1" d="M17.6,52.7c.1-.9.8-1,1.4-1H29.9c1.2,0,1.9.8,2.8,1.7l-1.4.2H19.5C18.7,53.6,17.9,53.7,17.6,52.7Z"/><path class="cls-1" d="M50.6,47.3V39.6c3.5-.7,6.4-2.2,8.2-5.2a10.7,10.7,0,0,0,.9-9.7l7.1-3.6c2.6,5.7,2.2,11.1-.5,16.5S55.4,47.8,50.6,47.3Z"/><path class="cls-1" d="M40.7,28.7a9,9,0,0,1,9-9,9.1,9.1,0,0,1,.1,18.2A9.1,9.1,0,0,1,40.7,28.7Zm9.1,7.2a7,7,0,0,0,7.1-7.1,7.2,7.2,0,1,0-14.4,0A7,7,0,0,0,49.8,35.9Z"/><path class="cls-1" d="M42.4,13.4l-.8-1.3C49.5,7.3,61.9,11,66,19.7l-1.4.8C59.1,12.4,51.8,10.1,42.4,13.4Z"/><path class="cls-1" d="M48.8,45.8v1.6a14.4,14.4,0,0,1-7.4-1.7A18.5,18.5,0,0,1,31.1,31.5h1.8C34.8,39.9,40.2,44.7,48.8,45.8Z"/><path class="cls-1" d="M37.2,14.8l.9,1.3a56.2,56.2,0,0,0-3.2,4.7,55.1,55.1,0,0,0-2.2,5.4H31.2A17.8,17.8,0,0,1,37.2,14.8Z"/><path class="cls-1" d="M44.4,19.4l-1.5,1c-1.4-2.1-2.9-4.2-4.3-6.5l1.5-1Z"/><path class="cls-1" d="M38.9,28v1.5H31.3L31.1,28Z"/></g></g></svg>