<svg xmlns="http://www.w3.org/2000/svg"  width="22px" height="22px" viewBox="0 0 78.4 64"><defs><style>.cls-1{fill:#1375be;}</style></defs><g id="Layer_2" data-name="Layer 2"><g id="Layer_1-2" data-name="Layer 1"><path class="cls-1" d="M23.9,34.7l1.2,1.7c-3.1,1.4-1.8.5-4.9,1.8a1.4,1.4,0,0,1-1.5-.3l-6.2-4a1.5,1.5,0,0,0-1.7-.1L1.9,37.6l-.7.2a.9.9,0,0,1-1.1-.6A.9.9,0,0,1,.4,36l.7-.3,9.8-4.2a1.9,1.9,0,0,1,1.9.2c4.2,2.8,2.1,1.2,6.2,4a1.5,1.5,0,0,0,1.6.1C23.2,34.7,21.3,35.8,23.9,34.7Z"/><path class="cls-1" d="M63,41.7l1.1-1.9L68.3,46c.3.5.6.6,1.1.3,3.5-1.6,3.6-1.8,7.1-3.3a1.3,1.3,0,0,1,1.9.3,1,1,0,0,1-.4,1.2l-.6.3c-3.9,1.7-4.4,2.1-8.2,3.9-1,.4-1.3.4-1.9-.6S64.4,43.8,63,41.7Z"/><path class="cls-1" d="M30,23.2A15.9,15.9,0,0,1,48.7,10.6,15.9,15.9,0,1,1,30,23.2Zm5.3,11.9a13.5,13.5,0,0,0,18.5,2,9.6,9.6,0,0,0,3.4-3.8A9.1,9.1,0,0,0,59,28.6a7.4,7.4,0,0,0,.3-2.6,13.7,13.7,0,0,0-27.4.3,10.6,10.6,0,0,0,1.2,5.3A8,8,0,0,0,35.3,35.1Z"/><path class="cls-1" d="M57.2,33.3a2.3,2.3,0,0,1-.8-1.1l-3.3-5.6c-.2-.5-.4-.6-.9-.3l-2.7,1.5a1.9,1.9,0,0,1-2.9-.7,2.1,2.1,0,0,1,1-2.9l4.7-2.5c1.4-.8,2.4-.5,3.3.9l3.4,6A9.1,9.1,0,0,1,57.2,33.3Z"/><path class="cls-1" d="M33.1,31.6,40.7,28a2.1,2.1,0,0,1,2.6,1,1.9,1.9,0,0,1-1,2.7L36,34.8l-.7.3A8,8,0,0,1,33.1,31.6Z"/><path class="cls-1" d="M32.1,48.6c13.6,7.6,27.7,2.5,34.6-7.1A26.2,26.2,0,0,0,31.6,4,25.9,25.9,0,0,0,20.1,20.4a25.8,25.8,0,0,0,3.1,19.3l-9.7,9.6-3.4,3.5a6.5,6.5,0,1,0,9.1,9.3c3.8-3.7,7.5-7.5,11.3-11.3A20.9,20.9,0,0,0,32.1,48.6ZM45.5,3.7A22.5,22.5,0,1,1,23.1,26.2,22.1,22.1,0,0,1,45.5,3.7Z"/></g></g></svg>