<svg xmlns="http://www.w3.org/2000/svg" width="22px" height="22px" viewBox="0 0 78.3 90.9"><defs><style>.cls-1{fill:#1375be;}</style></defs><g id="Layer_2" data-name="Layer 2"><g id="Layer_1-2" data-name="Layer 1"><path class="cls-1" d="M0,45.3V6.6C0,4,.7,1.6,3.5.5a9.9,9.9,0,0,1,3-.5h56c3.7,0,5.9,2.3,5.9,6V27.3a4.6,4.6,0,0,0,1.4,3.5,28.5,28.5,0,0,1,8.4,23.1,28,28,0,0,1-8.5,18.4,3.4,3.4,0,0,0-1.3,3.1c.1,3.2,0,6.5,0,9.7a5.4,5.4,0,0,1-5.8,5.8H6.4C1.8,90.9.1,88.3,0,84.4V45.3ZM42.4,25.5h-.1A.1.1,0,0,1,42.4,25.5ZM19.5,2.7h0Zm6.1,60.8a13,13,0,0,1,1.5,1.8C33,74.1,42.2,77.8,52.2,76.5A24.3,24.3,0,0,0,68,67.7a25,25,0,0,0,0-32.5A25.4,25.4,0,0,0,25.1,61.5,6.5,6.5,0,0,1,25.6,63.5Zm-2.7,2.6c-1.3-2.3-3.5-1.8-5.5-1.8H14.9a2.4,2.4,0,0,1-2.7-2.1c-.1-1.3,1.1-2.2,2.7-2.2h4.8c-.3-1.7-.5-3.3-.7-4.8s-.7-1.7-1.9-1.6a16.1,16.1,0,0,1-3.1-.1,1.9,1.9,0,0,1-1.8-2.2,1.9,1.9,0,0,1,2-1.9,16.9,16.9,0,0,0,3.2-.1,1.8,1.8,0,0,0,1.4-.9c.4-1.8.6-3.6.9-5.4l-.5-.2h-4c-1.9,0-3-.8-3-2.1s1.1-2.2,2.9-2.3h5.4c.4,0,1.1-.1,1.3-.4,1.3-1.9,2.5-3.8,3.8-5.9-3.7,0-7.1.1-10.5,0-1.8,0-2.9-.9-2.9-2.1s1.1-2.2,2.9-2.2H29a5.6,5.6,0,0,0,2.6-.7c9.8-6.1,19.8-6.9,30.3-2l2.1,1V7.1c0-2.8,0-2.8-2.9-2.8H7.4c-3,0-3,.1-3,3V84c0,2.2.3,2.5,2.5,2.5h56c.4-.3,1-.7,1-1.1.1-2.7.1-5.4.1-8.4l-1.1.5c-10.6,5.3-21,4.9-31.1-1.4a6.9,6.9,0,0,0-3.9-1.2H14.4c-1.2,0-2-.5-2.1-1.6a1.9,1.9,0,0,1,1.6-2.4,21.7,21.7,0,0,1,3.6-.2h7.7l-2.3-4.5h0Z"/><path class="cls-1" d="M34.6,13.2H54.9a2.2,2.2,0,0,1,.1,4.3H14.4a1.9,1.9,0,0,1-2.1-2.1c-.1-1.3.7-2.1,2.1-2.2H34.6Zm-1.4,3.2h0Zm-1.5-1.5h0Z"/><path class="cls-1" d="M43.8,58.9,54.6,48.2c2.5-2.5,5-5.1,7.7-7.6a3.7,3.7,0,0,1,2.4-1c1.9.3,2.2,2.4.7,3.9L54.1,54.8l-8.2,8.1c-1.4,1.4-2.2,1.5-3.6.1l-9.8-9.8a2.1,2.1,0,0,1,3.1-2.8l7.1,6.9Z"/></g></g></svg>