<svg xmlns="http://www.w3.org/2000/svg" width="22px" height="22px" viewBox="0 0 94.6 81.6"><defs><style>.cls-1{fill:#1375be;}</style></defs><g id="Layer_2" data-name="Layer 2"><g id="Layer_1-2" data-name="Layer 1"><path class="cls-1" d="M42.9,31.8a18,18,0,0,1-.8,2.1l-3,7.8A4.5,4.5,0,0,1,33,44.5L16,38.1a4.2,4.2,0,0,1-2.6-5.4c2-5.5,4.1-11,6.2-16.4S23,7.4,24.8,2.9A4.3,4.3,0,0,1,30.1.2C34,1.5,37.9,3,41.8,4.5l5.7,2.2a4.5,4.5,0,0,1,2.7,6c-1.2,3.2-2.5,6.4-3.8,9.8l7.4,2.8L89.6,38.8A18.1,18.1,0,0,1,92.4,40c2.3,1.4,2.8,3.7,1.5,6.4a4.4,4.4,0,0,1-5.7,2.5c-8.6-3.1-17.1-6.4-25.7-9.6L44.4,32.5Zm-4.3,1.9c1.9-5,3.8-10,5.8-15.1L25,11.2,19.3,26.3Zm5.4-5,1.1.5,20.3,7.7,23.2,8.7c1.2.5,2,.4,2.5-.9s0-1.9-1.3-2.3L56,29.6l-10.7-4Zm-6.5,8.1L18.1,29.4a25.7,25.7,0,0,0-1.5,4.1c-.1.4.5,1.3,1,1.6a21.3,21.3,0,0,0,3.5,1.4l12.7,4.9a1.5,1.5,0,0,0,2.3-1C36.5,39.2,37,38.1,37.5,36.8Zm8.1-21.4c.5-1.3.9-2.6,1.4-3.8s.1-1.6-.9-1.9l-4-1.6L29.7,3.5c-1-.4-1.5-.1-1.9.9L26.3,8.1l9.6,3.6Z"/><path class="cls-1" d="M5.4,57.4V55.5a4.7,4.7,0,0,1,4.9-4.8H50.4a6.5,6.5,0,0,1,4.5,1.2c2.7-1.3,5.1-2.9,7.8-3.7A17,17,0,1,1,51.2,70.5a1.5,1.5,0,0,0-1.7-1.2H4.9A4.5,4.5,0,0,1,.2,65.6a13,13,0,0,1,0-4.4C.6,58.7,1.8,58,5.4,57.4ZM67.1,78.2a13.7,13.7,0,1,0-.2-27.4c-7.5.2-13.3,5.6-13.5,13.7A13.5,13.5,0,0,0,67.1,78.2ZM50.2,65.9a16.7,16.7,0,0,1,2.4-10.1c.6-1,.2-1.6-.9-1.7H12.6c-4.2.1-3.8-.3-3.8,3.9,0,2.5-.3,2.8-3,2.9s-2.4.2-2.4,2.7.1,2.4,2.4,2.4H50.2Z"/><path class="cls-1" d="M64.8,67.9l10-9.9a1.5,1.5,0,0,1,2.4,0,2.4,2.4,0,0,1-.1,2.2c-3.7,3.8-7.4,7.5-11.2,11.2a1.4,1.4,0,0,1-2.3,0c-1.9-1.8-3.8-3.6-5.6-5.5a1.4,1.4,0,0,1,.1-2.2,2.4,2.4,0,0,1,2.2.1C61.9,65.1,63.4,66.6,64.8,67.9Z"/><path class="cls-1" d="M29.8,57.6H47.7c1.5,0,2.4.5,2.3,1.6s-1,1.7-2.3,1.7H11.9a1.9,1.9,0,0,1-2.3-1.6c-.1-1,.9-1.7,2.3-1.7Z"/></g></g></svg>