<svg xmlns="http://www.w3.org/2000/svg" width="22px" height="22px" viewBox="0 0 66.3 65.6"><defs><style>.cls-1{fill:#1375be;}</style></defs><g id="Layer_2" data-name="Layer 2"><g id="Layer_1-2" data-name="Layer 1"><path class="cls-1" d="M33.1,0H60.5a5.8,5.8,0,0,1,5.8,5.9V51a5.8,5.8,0,0,1-5.8,5.9H43.6c-.4,0-.5.1-.5.5v1.3c0,.3.1.4.4.4s2.7-.1,4,0a4.3,4.3,0,0,1,4.3,3.3,5.9,5.9,0,0,1,.1,2.3,1,1,0,0,1-1,.9H15.8c-1.1,0-1.4-.4-1.4-1.4a6.2,6.2,0,0,1,.1-1.9,4.4,4.4,0,0,1,4-3.2c1.4-.1,2.8,0,4.3,0s.5-.1.4-.5V57.2c0-.2,0-.3-.3-.3H5.9A6,6,0,0,1,.1,52.3,5.3,5.3,0,0,1,0,51V5.8A5.8,5.8,0,0,1,5.8,0Zm0,45.9H63.6c.4,0,.5-.2.5-.6V6a3.6,3.6,0,0,0-3.6-3.8H5.8A3.7,3.7,0,0,0,2.3,4.9a8.1,8.1,0,0,0-.1,1.6V45.3c0,.7-.1.6.6.6Zm.1,2.2H2.6c-.3,0-.4.1-.4.4V51a3.7,3.7,0,0,0,3.6,3.7H60.6a3.6,3.6,0,0,0,3.5-3.2V48.6c0-.4-.1-.5-.5-.5Zm-.1,15.3H49.2c.6,0,.6,0,.4-.6a2.1,2.1,0,0,0-2.3-1.5H18.7a2,2,0,0,0-2,1.6c-.2.5-.1.5.4.5Zm.1-6.5H25.9c-.4,0-.5.1-.5.5v1.3c0,.3.1.4.4.4H40.6c.3,0,.3-.1.3-.4V57.3c0-.3-.1-.4-.4-.4Z"/><path class="cls-1" d="M46.8,21.9H34.4A3.3,3.3,0,0,1,31,19.3V5.6a1.1,1.1,0,0,1,1.4-1.2,1.2,1.2,0,0,1,.8,1.2V18.4c0,.9.4,1.3,1.3,1.3s.9,0,.9-.9c0-3.6,0-7.2-.1-10.8a2.4,2.4,0,0,1,2.6-2.5h1.8A2.2,2.2,0,0,1,42,7.8V19.3c0,.3.1.4.4.4h1.4c.4,0,.4-.1.4-.4V13a2,2,0,0,1,2.1-2.1h2.5a1.9,1.9,0,0,1,2,2.1v6.3c0,.3.1.4.4.4h1.5c.3,0,.4-.1.4-.4s-.1-2-.1-3.1a1.9,1.9,0,0,1,2.1-2h2.7a1.8,1.8,0,0,1,1.9,2v3.1c0,.2,0,.4.3.4a1.1,1.1,0,0,1-.3,2.2H46.8Zm-9.2-8.2v5.6c0,.3.1.4.4.4h1.5a.3.3,0,0,0,.3-.3V8q0-.4-.3-.3H38c-.3-.1-.4,0-.4.4Zm11,2.7v-3c0-.2,0-.3-.2-.3H46.7a.3.3,0,0,0-.3.3v6a.3.3,0,0,0,.3.3h1.6c.3,0,.3-.1.3-.4Zm6.7,1.7v1.3c0,.2,0,.3.2.3h1.7a.3.3,0,0,0,.3-.3V16.7c0-.3-.1-.3-.3-.3H55.6c-.3,0-.3.1-.3.3Z"/><path class="cls-1" d="M33.3,35.6l1.8-1.9a3.5,3.5,0,0,1,5,0l1,1.1a1.3,1.3,0,0,0,1.8,0l4.3-4.3a3.5,3.5,0,0,1,5.1,0l.9.9c.7.7,1.2.7,1.9,0l3.7-3.6a1,1,0,0,1,1-.4,1,1,0,0,1,.9.6,1,1,0,0,1-.2,1.2l-4.2,4.1a3.2,3.2,0,0,1-4.4-.1L50.6,32a1.1,1.1,0,0,0-1.8,0l-4.3,4.3a3.3,3.3,0,0,1-5,0l-1.1-1.1a1.1,1.1,0,0,0-1.7,0l-3.3,3.4c-.1,0-.2.1-.2.3a9.6,9.6,0,0,0,0,1.7.9.9,0,0,0,.9.9H59.9a1.1,1.1,0,0,1,.1,2.1H34.4A3.3,3.3,0,0,1,31,40.4q-.2-6.4,0-12.9c0-.7.3-1.2.9-1.2a1,1,0,0,1,1.2.8.7.7,0,0,1,.1.5v7.9Z"/><path class="cls-1" d="M15.5,28.4a7.7,7.7,0,0,1,0,15.4,7.7,7.7,0,1,1,0-15.4ZM20,39.1h.1a5.5,5.5,0,0,0-3.2-8.2c-.3-.1-.3,0-.3.3v4.2c0,.2,0,.4.2.5Zm-9.7-1.2,3.8-2.2a.7.7,0,0,0,.3-.6V31.2c0-.4-.2-.5-.5-.3a5,5,0,0,0-3.3,2.7A5.4,5.4,0,0,0,10.3,37.9Zm4.8,3.6a4.9,4.9,0,0,0,3.1-.7c.3-.1.3-.2.1-.4l-2.8-2.7c-.1-.2-.2-.2-.4-.1l-3.4,2c-.3.2-.2.3,0,.4A5.2,5.2,0,0,0,15.1,41.5Z"/><path class="cls-1" d="M15.4,26.3H9.5a1.6,1.6,0,0,1-1.8-1.8v-8a1.1,1.1,0,0,1,.8-1.1,1,1,0,0,1,1.2.3,1.2,1.2,0,0,1,.3.9c-.1,2.3,0,4.7-.1,7,0,.4.2.5.5.5q5.1-.2,10.2,0c.3,0,.4-.1.4-.5v-7a1.2,1.2,0,0,1,.9-1.3,1.1,1.1,0,0,1,1.3,1.1v8.4a1.5,1.5,0,0,1-1.7,1.5Z"/><path class="cls-1" d="M10,8.7l3.7-3.3.6-.6a1.7,1.7,0,0,1,2.3,0L25,12.2a1.3,1.3,0,0,1,.2,1.7,1.2,1.2,0,0,1-1.7-.1L15.8,7.1c-.2-.3-.4-.3-.6-.1L7.6,13.7a1.8,1.8,0,0,1-.7.5,1,1,0,0,1-1.2-.6,1,1,0,0,1,.2-1.3l1.6-1.4a.7.7,0,0,0,.3-.6,12.7,12.7,0,0,1-.1-2c.1-.7.5-1.2,1.1-1.2A1.2,1.2,0,0,1,10,8.3Z"/></g></g></svg>