<svg xmlns="http://www.w3.org/2000/svg" width="22px" height="22px" viewBox="0 0 100.4 92.9"><defs><style>.cls-1{fill:#1375be;}</style></defs><g id="Layer_2" data-name="Layer 2"><g id="Layer_1-2" data-name="Layer 1"><path class="cls-1" d="M18,29c1.6-2.7,2.4-6,4.2-6.8s4.9,1.2,7.4,1.4c7.8.5,15.7.7,23.5,1h.7c4.2,0,7.3,1.8,7,4.5s-3.4,4.3-6.5,4.7L33.6,36.4V58.7H93V6.4H28.3c-.4,2.7-.4,5.1-1.2,7.3a9.5,9.5,0,0,1-12.9,5.4A10.1,10.1,0,0,1,8.9,6c2-4.8,8.7-7.7,13.2-4.9S30.6,3.6,35,3.7l17.9.2c.8,0,1.7-.9,2.5-1.6A8.8,8.8,0,0,0,56.6.8,16.6,16.6,0,0,0,58,2.1c1.2.7,2.4,1.8,3.5,1.8l34.3-.2c1.4,0,2.7.9,4,1.3L96.1,7.2V58.4c3.6,1.1,5.2,3.8,3.8,7.6-.3.8-2.2,1.5-3.4,1.5-11.3.2-22.6.1-33.9.1l-4.5.2c0,3.1-.2,5.8,0,8.5a3.5,3.5,0,0,0,1.6,2.3l16.6,6.2A3.6,3.6,0,0,1,78,86.3c.2.5-.3,1.7-.7,1.7a4.2,4.2,0,0,1-2.5-.2L57.7,80.7c.4,3.7.7,6.5.9,9.3a2.8,2.8,0,0,1-.6,2.2,2.4,2.4,0,0,1-2.3.1,3.3,3.3,0,0,1-.7-2.4c0-2.8.3-5.6.6-9.1l-16.9,7a3.9,3.9,0,0,1-2.6.1c-.3-.1-.8-1.4-.5-1.8a3.5,3.5,0,0,1,1.8-1.3l16.3-6.1a3.3,3.3,0,0,0,1.6-2.3c.2-2.7.1-5.4.1-8.5H29.2c-.2,5.8-.4,11.4-.6,17-.3,7.4-.9,8.2-8.3,8-3.6-.1-7.7.1-10.6-1.5S8.5,85,8,81.6,7.5,71.9,7.3,67c-.1-1.5.2-3.2-2.2-3.3-.5-.1-.9-1.2-1.2-1.9s-.3-1.6-.6-1.6c-4.8-.7-3-4.5-3-7,0-7.8.4-15.7.7-23.5,0-1.1.1-2.7.7-3,3.9-1.8,7.8-3.4,11.8-4.9.3-.1,1.2.9,1.6,1.5S16.9,26.8,18,29Zm1.3,32.1H28c1.9,0,2.3-1,2.3-2.7.2-7.2.6-14.5.6-21.7.1-2.4.8-3.4,3.2-3.6,5.4-.3,10.9-.8,16.3-1.5a73.7,73.7,0,0,0,7.9-1.6V28.6a17.4,17.4,0,0,0-3.4-1.2L25.5,25.1a3.7,3.7,0,0,0-2.8,1.4c-1.9,3.4-4.1,6.6-3.4,10.9.5,2.6,0,5.2,0,7.9Zm-2.5.1c0-7-.1-13.5,0-20,0-2.4.6-4.9,0-7.2a23.3,23.3,0,0,0-4-8.4c-.6-.7-4,1.1-6.1,1.6S3.5,29,3.5,31.4C3.4,37.7,2.9,44,3,50.3c.1,2.8-2.1,6.9,3,8,.2,0,.3.4.3.6.1,2.8,2.1,2.3,3.9,2.3Zm12.6,3.7,3.2.3H94.1c1.1,0,2.2-1.2,3.2-1.7-1-.6-2-1.7-3.1-1.7H42.3C37.9,61.7,33.3,60.8,29.4,64.9ZM19.7,64V90.1c2.9.4,6,.1,6.1-2.8.5-7.7.2-15.4.2-23.3Zm-10.3.2c.5,7.3.9,14.5,1.3,21.7.2,3.7,2,4.9,5.8,3.8V63.8H11A7.3,7.3,0,0,0,9.4,64.2Zm16-54.3a7.1,7.1,0,0,0-7.2-7.2,7.3,7.3,0,0,0-7.4,7.4,7.5,7.5,0,0,0,7.4,7.1A7.3,7.3,0,0,0,25.4,9.9Z"/></g></g></svg>