<svg xmlns="http://www.w3.org/2000/svg" width="22px" height="22px" viewBox="0 0 90.4 90.5"><defs><style>.cls-1{fill:#1375be;}</style></defs><g id="Layer_2" data-name="Layer 2"><g id="Layer_1-2" data-name="Layer 1"><path class="cls-1" d="M31,84.7a21.1,21.1,0,0,1,1.5-1.5l1.7-1.6c.8-.7,1.2-.7,2,0l1.7,1.5a11.7,11.7,0,0,0,1.6,1.5l3.3-3,1.6,1.7a27.1,27.1,0,0,1-4.2,4.1,1.1,1.1,0,0,1-1.6-.1l-2.2-2.1-1.2-1L34,85.3,32.2,87c-1.1,1-1.4,1-2.5-.1l-3-2.7-2.2,2c-1.9,1.9-2.1,2-4.1.1L18,83.8a2.4,2.4,0,0,1-.8-2c-.1-3-.3-5.9-.3-8.9V6.5a6.2,6.2,0,0,0-.1-1.3,2.6,2.6,0,0,0-3.2-2.6c-1.7,0-2.6,1.1-2.7,2.9v9c-.1,10.8,0,21.7-.1,32.5V76.1a21.5,21.5,0,0,1-.5,3.4l3.3.3v2.3c-3.2-.1-6.4.2-9.5-.3A5.5,5.5,0,0,1,0,76.5v-58c0-1,.1-2.1.1-3.1a1,1,0,0,1,1-1.1h4v2.3l-2.6.2a17.9,17.9,0,0,0-.2,2.3V67.2c0,2.8,0,5.5.1,8.3a8.6,8.6,0,0,0,.1,1.6,2.7,2.7,0,0,0,3.1,2.5,2.7,2.7,0,0,0,2.7-2.8c.1-1.8.1-3.6.1-5.4V14.7c0-3.2.2-6.3.3-9.5a5.2,5.2,0,0,1,5-5.1H78.8c2.7,0,4.3,1.4,5.6,3.5a3.5,3.5,0,0,1,.3,1.4c.1,7.5.1,14.9.1,22.4a2,2,0,0,0-.1.5H82.4c0-1.5-.1-2.9-.1-4.3V6.2a6.2,6.2,0,0,0-.1-1.3,2.4,2.4,0,0,0-2.5-2.3H18.8c1,3.4.5,6.7.5,9.9.1,16.8,0,33.7,0,50.5,0,5.6.1,11.2.1,16.7a3.8,3.8,0,0,0,1.4,3.5l1.6,1.5,2.5-2.4c1.7-1.6,1.9-1.6,3.5-.1Z"/><path class="cls-1" d="M48.3,31.4H90.1c.3,1.2.4,56.9.1,58.8-1.3.4-40.3.4-41.9,0Zm2.5,2.5a17,17,0,0,0-.1,2.2V73.6c0,4.3-.1,8.7,0,13,0,1.5.1,1.6,1.5,1.6H86.4c1.6,0,1.7-.1,1.7-1.7V36.4c0-.8-.1-1.6-.1-2.5Z"/><path class="cls-1" d="M50.9,16.7H37.8c-3.6,0-7.1-.2-10.7-.3-1.4,0-1.5-.2-1.6-1.5s-.1-3,0-4.6.3-1.6,1.7-1.6H74.3c1.7,0,1.9.2,1.9,1.9s.1,2.9,0,4.4-.3,1.3-1.3,1.4H73.4l-22.5.3Zm22.8-5.6h-45c-.3.1-.6.3-.6.5a4.1,4.1,0,0,0,.1,2.2c0,.3.9.4,1.4.4H73.7Z"/><path class="cls-1" d="M76.1,22.2H42.7V20.1c1.1-.3,31.4-.3,33.4,0Z"/><path class="cls-1" d="M37.1,31.4h2c.3,3,.1,6,.1,9V67.6h-2C36.8,66.3,36.7,33.6,37.1,31.4Z"/><path class="cls-1" d="M25.5,67.6V40h2.3V67.6Z"/><path class="cls-1" d="M42.7,67.7V42.9h2c.3,1.3.5,22.1.1,24.8Z"/><path class="cls-1" d="M44.9,71.2v2.1c-1.2.4-17.5.4-19.3.1a2.8,2.8,0,0,1-.1-.9,6.2,6.2,0,0,1,.1-1.3Z"/><path class="cls-1" d="M31.4,48.5h1.9c.3,1.3.4,17.2,0,19.1h-2C31,66.2,31,49.8,31.4,48.5Z"/><path class="cls-1" d="M27.8,22.2H25.6V20h2.2Z"/><path class="cls-1" d="M33.5,20v2.2H31.2V20Z"/><path class="cls-1" d="M39.3,22.2H37V20h2.1Z"/><path class="cls-1" d="M54.1,50.7l-.2-2c1.3-.3,29.1-.4,30.8-.1,0,.4.1.7.1,1.1s-.1.6-.1.9S55.9,51,54.1,50.7Z"/><path class="cls-1" d="M84.7,37v2.1H54.1V37.4c.2-.2.2-.2.2-.3H84.7Z"/><path class="cls-1" d="M76.7,58.1a20.9,20.9,0,0,1,.1-2.5c0-1.1.3-1.4,1.3-1.5a45.1,45.1,0,0,1,5.2,0c1,0,1.4.4,1.4,1.3a48.6,48.6,0,0,1,0,5.4c0,.9-.4,1.2-1.4,1.3H78.2c-1.2-.1-1.4-.4-1.4-1.6A19.3,19.3,0,0,1,76.7,58.1Zm2.6,1.4,1.5.2c1.4,0,1.6-.2,1.6-1.6s-.2-1.6-1.7-1.6l-1.4.2Z"/><path class="cls-1" d="M76.8,69.4V66.8c0-.8.3-1.3,1.2-1.3h5.4c.9.1,1.3.4,1.3,1.3a46.9,46.9,0,0,1,0,5.3c0,.9-.4,1.3-1.3,1.4H78c-.9,0-1.2-.4-1.2-1.4a22.5,22.5,0,0,1,0-2.6Zm2.5-1.5a7.6,7.6,0,0,0-.1,1.4c-.1,1.7.1,1.9,1.8,1.8s1.3-.1,1.3-1.3a6.2,6.2,0,0,0-.1-1.9Z"/><path class="cls-1" d="M57.9,62.1H55.3c-.8-.1-1.3-.4-1.3-1.3s.1-3.6,0-5.4a1.2,1.2,0,0,1,1.2-1.3h5.6a1,1,0,0,1,1,.9,17.9,17.9,0,0,1,.1,6.1c-.1.7-.6.9-1.2,1Zm-1.2-5.5a3.2,3.2,0,0,0,0,3,14.7,14.7,0,0,0,2.1,0c.2,0,.7-.2.7-.4a5.9,5.9,0,0,0,0-2.3c-.2-.6-1-.4-1.6-.4Z"/><path class="cls-1" d="M73.3,58.1v2.6c-.1,1-.3,1.3-1.3,1.4H66.6c-.7-.1-1.1-.4-1.1-1.1a58.1,58.1,0,0,1,0-5.9,1,1,0,0,1,1.1-1H72c.9,0,1.2.4,1.3,1.4v2.6Zm-2.4,1.6c0-1,.1-1.7.1-2.3s-.3-.8-.5-.8a9.5,9.5,0,0,0-2.4.1c-.3.1-.4,1.1-.4,1.6s.1,1.3,1.3,1.3Z"/><path class="cls-1" d="M76.8,80.6V78.2a1.1,1.1,0,0,1,1-1.2,19.5,19.5,0,0,1,5.9,0,1.1,1.1,0,0,1,1,1.2,45.1,45.1,0,0,1,0,5.2c0,1-.4,1.3-1.4,1.4H78.2c-1.1-.1-1.4-.4-1.4-1.5a24.4,24.4,0,0,1-.1-2.7Zm5.4,1.7c.1-.4.1-.7.2-1,0-2-.5-2.4-2.4-2.1h-.2c-.2.2-.5.4-.6.6-.6,2,.2,2.9,2.2,2.6Z"/><path class="cls-1" d="M54.1,69.5a26.1,26.1,0,0,1,0-2.8c0-.7.3-1.2,1-1.2h5.6a1.1,1.1,0,0,1,1.2,1.1,54.2,54.2,0,0,1,0,5.7c0,.8-.7,1.2-1.5,1.2H55.7c-1.3-.1-1.6-.4-1.7-1.7V69.5Zm5.4-1.4-.6-.3H57.8c-1.3,0-1.5.2-1.5,1.4a3.7,3.7,0,0,0,.1,1.1,1.1,1.1,0,0,0,.6.7c1.6.7,2.7,0,2.7-1.8S59.6,68.5,59.5,68.1Z"/><path class="cls-1" d="M69.3,65.5h2.8c.8,0,1.2.4,1.2,1.1v5.8a1,1,0,0,1-1.1,1H66.5a.9.9,0,0,1-1-1,58.1,58.1,0,0,1,0-5.9c0-.7.5-1,1.2-1ZM67.7,68v2.3a1.1,1.1,0,0,0,.3.6,9.7,9.7,0,0,0,2.4.1c.7,0,.6-.7.6-1.3s-.2-2-1.9-1.9Z"/><path class="cls-1" d="M54,80.8V78.2A1.1,1.1,0,0,1,55.1,77h5.7c.7,0,1.1.3,1.1,1v5.7c0,.8-.6,1.1-1.4,1.1H55.3a1.1,1.1,0,0,1-1.2-1.2,26.2,26.2,0,0,1,0-2.8Zm5.6,1.3a12.1,12.1,0,0,0,0-1.9,1,1,0,0,0-.6-.9c-1.8-.7-2.9.2-2.7,2.2a.4.4,0,0,0,.1.3c.2.2.4.7.7.7A2.9,2.9,0,0,0,59.6,82.1Z"/><path class="cls-1" d="M73.3,80.8v2.6c-.1,1.1-.2,1.3-1.3,1.4H66.6a1,1,0,0,1-1.1-1c-.1-1.9-.1-3.9-.1-5.8a1,1,0,0,1,1.1-1h5.6c1,0,1.1.2,1.2,1.3v2.5Zm-5.6.1c0,1.5.1,1.7,1.7,1.7s1.7-.3,1.6-1.7-.2-1.7-1.7-1.7S67.7,79.3,67.7,80.9Z"/><path class="cls-1" d="M62.4,44.9v-2h2.3v2Z"/><path class="cls-1" d="M70.5,44.9H68.3v-2h2.2Z"/><path class="cls-1" d="M74,42.9h2.1v2H74Z"/><path class="cls-1" d="M81.8,42.8v2.1H79.7v-2Z"/></g></g></svg>