<svg xmlns="http://www.w3.org/2000/svg" width="22px" height="22px" viewBox="0 0 166.5 186"><g id="Layer_2" data-name="Layer 2"><g id="Layer_1-2" data-name="Layer 1"><path fill="#1375be" d="M97.1,78.2l5.4,1.2a42.7,42.7,0,0,1,29,21.1c1.7,2.8,1,5.8-1.5,7.3s-5.6.6-7.3-2.2c-5.6-9.3-13.7-15-24.4-16.7-4.7-.7-9.6-.5-14.4-.5-12.8,0-25.5-.1-38.3,0-14.4.1-25.1,6.4-31.8,19.2a33.1,33.1,0,0,0-3.4,15.5v20.8c0,2.6,0,2.6,2.6,2.6H82.4c1.8,0,3.5.2,4.8,1.8a4.8,4.8,0,0,1,.9,5.1,5.2,5.2,0,0,1-4.9,3.4H7C1.9,156.8.1,155,.1,150c-.1-9-.2-17.9,0-26.9.3-18.5,8.8-32.2,25.3-40.5,3.8-1.9,8.3-2.6,12.5-3.9l2.4-.5C29.8,68.6,24.2,57,24.6,43a42.4,42.4,0,0,1,16-32.7,43.5,43.5,0,0,1,59.7,3.3C117.5,31.1,117.5,60,97.1,78.2ZM68.7,78c17.8.3,33.8-14.5,33.8-33.7a33.9,33.9,0,0,0-67.7-.2C34.8,63.4,50.8,78.4,68.7,78Z"/><path fill="#1375be" d="M160.1,146.5a5.5,5.5,0,0,1,5.5,2.3,5,5,0,0,1-2.7,7.7,2.7,2.7,0,0,1-1.5.3c-4.1-.9-5.8,1.2-7,4.9s-1.5,3.5,1.2,6.2,3.1,6.3.5,8.4-5,1.8-6.7-.4-4.6-3.6-8.2-1.6-3.8,1.6-3.9,5.7c0,2.4-.7,4.4-3,5.5s-7.5-.7-7.2-4.5-1.1-5.9-5-7-3.6-1.6-6.5,1.3-7.6,2.6-9.1-1.5a4.7,4.7,0,0,1,1.2-4.9,15.4,15.4,0,0,1,2.5-2.6c1-.9,1.2-1.6.5-2.8a26.8,26.8,0,0,1-2.1-4.9c-.4-1.3-1-1.9-2.4-1.8h-3.5a5.4,5.4,0,0,1-5-5.4,5,5,0,0,1,5.3-4.8c3.5.3,6-.4,6.4-4.4a3.1,3.1,0,0,1,.5-1.2c1.5-2.9,1.5-2.9-.9-5.3s-3.6-3.8-2.3-6.8a4.9,4.9,0,0,1,7.8-2,24.8,24.8,0,0,1,3.3,3.2c.7.7,1.2.7,2.1.2s3.9-1.6,5.7-2.5a2.7,2.7,0,0,0,1.3-1.7c.2-1.3,0-2.6.1-3.8a5.3,5.3,0,0,1,4.8-5.1,5,5,0,0,1,5.3,4.5,18.5,18.5,0,0,1,.2,4.1,1.9,1.9,0,0,0,1.5,2.1,53.8,53.8,0,0,1,5.5,2.4,1.6,1.6,0,0,0,2.2-.3,27.6,27.6,0,0,1,3-2.9c2.2-2,4.9-1.8,7,.3s2,4.8,0,7-2,1.9-2.9,3a2.4,2.4,0,0,0-.2,1.9c.7,1.8,1.7,3.5,2.3,5.4s1.1,2,2.5,1.8Zm-42.3,5.1a14.4,14.4,0,1,0,28.7,0,14.4,14.4,0,0,0-28.7,0Z"/></g></g></svg>