<?xml version="1.0" encoding="utf-8"?>
<!-- Generator: Adobe Illustrator 27.2.0, SVG Export Plug-In . SVG Version: 6.00 Build 0)  -->
<svg version="1.1" id="Layer_1" xmlns="http://www.w3.org/2000/svg" xmlns:xlink="http://www.w3.org/1999/xlink" x="0px" y="0px"
	 viewBox="0 0 223.1 61" style="enable-background:new 0 0 223.1 61;" xml:space="preserve">
<style type="text/css">
	.st0{fill:#FFFFFF;}
	.st1{fill:url(#SVGID_1_);}
	.st2{fill:url(#SVGID_00000000186928718753575210000008127897448318928828_);}
	.st3{fill:#FAC310;}
	.st4{fill:url(#SVGID_00000176755801882597834480000009710930577279430795_);}
	.st5{fill:#1875BB;}
	.st6{fill:#11568B;}
</style>
<g id="Layer_2_00000088118333072985225450000001847237966082483871_">
	<g id="Layer_1-2">
		<g id="Layer_2-2">
			<g id="_1_copy">
				<g id="Group_10">
					<path class="st0" d="M0,0v61h161.8c8,0,15.6-1.8,22.7-13.3s20.4-31.6,24.9-37.3c3.7-4.9,7.5-9.2,13.7-10.3H0V0z"/>
				</g>
			</g>
		</g>
		
			<linearGradient id="SVGID_1_" gradientUnits="userSpaceOnUse" x1="-225.9309" y1="-757.192" x2="-212.6499" y2="-766.251" gradientTransform="matrix(-1 0 0 -1 -181.273 -718.1102)">
			<stop  offset="0" style="stop-color:#BE792A"/>
			<stop  offset="0.395" style="stop-color:#FAC310"/>
			<stop  offset="0.693" style="stop-color:#FAC310"/>
		</linearGradient>
		<path class="st1" d="M42.1,30.5l5.2,5.2c1.7,1.7,1.8,6.7-0.5,9.1l-9.9,9.9l-3.1-3.1c-2.5-2.5-0.7-6,0.6-7.3l7.5-7.5
			C45.3,33.4,42.1,30.5,42.1,30.5z"/>
		
			<linearGradient id="SVGID_00000059292549097015741250000003529227916313636249_" gradientUnits="userSpaceOnUse" x1="19.6261" y1="-756.881" x2="32.9071" y2="-765.9401" gradientTransform="matrix(1 0 0 -1 0 -718.1102)">
			<stop  offset="0" style="stop-color:#BE792A"/>
			<stop  offset="0.395" style="stop-color:#FAC310"/>
			<stop  offset="0.693" style="stop-color:#FAC310"/>
		</linearGradient>
		<path style="fill:url(#SVGID_00000059292549097015741250000003529227916313636249_);" d="M22.3,30.2c0,0-3.6,3.5-5.4,5.2
			s-1.8,6.7,0.5,9.1l9.9,9.9l3.1-3.1c2.5-2.5,0.7-6-0.6-7.3l-7.5-7.5C19,33,22.3,30.2,22.3,30.2z"/>
		<path class="st3" d="M31.9,6.3c0,0,13.1,12.8,18.3,17.9s5.7,11.6,1,16.3L46.7,45c0,0,4.9-4.9-1.1-11S32,20.4,32,20.4L19.2,33.2
			c-4.4,4.4-3.7,8.2-2.4,10.3s-2.4-2.5-5.6-5.6S9.5,28.6,12.1,26S31.9,6.3,31.9,6.3"/>
		
			<linearGradient id="SVGID_00000063613927459249263930000010106785948935725696_" gradientUnits="userSpaceOnUse" x1="28.6123" y1="-754.7962" x2="22.1073" y2="-766.0622" gradientTransform="matrix(1 0 0 -1 0 -718.1102)">
			<stop  offset="0" style="stop-color:#BE792A"/>
			<stop  offset="0.395" style="stop-color:#FAC310"/>
			<stop  offset="0.693" style="stop-color:#FAC310"/>
		</linearGradient>
		<path style="fill:url(#SVGID_00000063613927459249263930000010106785948935725696_);" d="M19,40.2c-1.5,1.6-1.5,4.2,0,5.8
			c1.6,1.6,4.1,1.6,5.7,0.1l4.2-4.2c2.6-2.6,4.7-0.5,4.7-0.5s-1.5-1.4-3.8-3.7s-5.4-2.9-7.5-0.8L19,40.2z"/>
		<path class="st5" d="M22.4,36.9c0,0,2.3-2.1,4.4-4.2c3.8-3.8,7.8-3.7,11.3-0.3c2.6,2.6,5,5.1,7.1,7.1c2.3,2.3,2.2,4.7,0.6,6.3
			c-0.6,0.6-0.7,0.5-1.6,1.4c-1.6,1.6-4.1,0.8-6.2-1.3c-2.2-2.2-6.7-6.6-8.7-8.5C27.5,35.5,24.5,35.2,22.4,36.9z"/>
		<rect x="63.2" y="35.9" class="st3" width="100.6" height="1.3"/>
		<path class="st5" d="M63.7,31.9V20.2c0-2.2,0.5-3.8,1.6-4.8c1.4-1.1,3.2-1.7,5-1.6h3.8v5.1h-3c-0.8-0.2-1.5,0.4-1.7,1.2
			c0,0.2,0,0.4,0,0.5V21h4.8v4.8h-4.8v6.1H63.7z"/>
		<path class="st5" d="M76.2,31.9V13.8h5.7v18.1H76.2z"/>
		<path class="st5" d="M84.3,31.9V17.4c-0.1-1,0.2-2,0.8-2.9c0.6-0.7,1.5-1.1,2.4-1c0.8,0,1.5,0.2,2.1,0.7c0.7,0.5,1.3,1.2,1.6,2
			l2,3.8c0.1,0.2,0.3,0.6,0.7,1.5v-7.6h5.6v14.7c0.1,1-0.2,2-0.8,2.8c-0.6,0.6-1.5,1-2.4,0.9c-0.7,0-1.4-0.2-2-0.6
			c-0.6-0.5-1.2-1.1-1.5-1.8l-2.3-4.1c-0.1-0.2-0.2-0.5-0.3-0.7c-0.2-0.4-0.3-0.7-0.4-0.9V32h-5.5V31.9z"/>
		<path class="st5" d="M101.9,31.9V21.5c-0.1-2.1,0.6-4.3,2-5.9c1.3-1.5,3.2-2.3,5.2-2.2c2-0.1,3.9,0.7,5.2,2.2
			c1.4,1.6,2.1,3.7,2,5.8v10.3h-5.7V26h-2.3v-4.7h2.3v-0.5c0.1-0.5-0.1-1-0.4-1.4c-0.5-0.6-1.5-0.7-2.1-0.1c0,0-0.1,0.1-0.1,0.1
			c-0.3,0.4-0.5,0.9-0.4,1.4v11h-5.7V31.9z"/>
		<path class="st5" d="M118.4,31.9V20.7c-0.1-2,0.6-3.9,1.9-5.3c1.3-1.3,3.1-2.1,5-2c1.8,0,3.5,0.6,4.9,1.7c1.3,1,2,2.5,2,4.1
			c0,0.7-0.2,1.4-0.5,2c-0.4,0.6-0.9,1.2-1.6,1.5c0.7,0.2,1.3,0.7,1.7,1.3c0.4,0.7,0.6,1.6,0.5,2.4v5.5h-5.6v-4.8
			c0-0.6-0.1-1-0.4-1.2c-0.4-0.3-0.9-0.4-1.4-0.3h-0.3v-4.4h0.3c0.5,0.1,1-0.1,1.4-0.4c0.3-0.2,0.5-0.6,0.5-1c0-0.8-0.7-1.4-1.4-1.4
			c-0.4,0-0.8,0.2-1.1,0.5c-0.2,0.5-0.3,1.1-0.3,1.7v11.3H118.4z"/>
		<path class="st5" d="M139.7,13.8v5.8c0,0.3,0.1,0.6,0.2,0.9c0.4,0.4,1,0.4,1.4,0c0,0,0,0,0,0c0.2-0.2,0.2-0.5,0.2-0.9v-5.8h5.6
			v5.7c0.1,1.3-0.3,2.6-0.9,3.7c-0.6,1.1-1.6,1.9-2.8,2.3v6.3h-5.7v-6.3c-1.2-0.5-2.1-1.3-2.8-2.4c-0.6-1.1-0.9-2.4-0.9-3.7v-5.7
			h5.7V13.8z"/>
		<path class="st5" d="M148.8,31.9V21.5c-0.1-2.1,0.6-4.3,2-5.9c2.8-2.9,7.4-2.9,10.2-0.2c0.1,0.1,0.1,0.1,0.2,0.2
			c1.4,1.6,2.1,3.7,2,5.8v10.3h-5.7V26h-2.3v-4.7h2.3v-0.5c0.1-0.5-0.1-1-0.4-1.4c-0.5-0.6-1.5-0.7-2.1-0.1c0,0-0.1,0.1-0.1,0.1
			c-0.3,0.4-0.5,0.9-0.4,1.4v11h-5.7L148.8,31.9z"/>
		<path class="st6" d="M68.3,48.1C68.3,48.1,68.3,48.1,68.3,48.1c0,0.1-0.1,0.1-0.1,0.1c0,0-0.1,0-0.1,0c-0.1,0-0.2,0-0.3,0
			c-0.1,0-0.1,0-0.2,0c0,0-0.1,0-0.1,0c0,0-0.1,0-0.1-0.1c0,0,0-0.1-0.1-0.1l-0.6-1.5c-0.1-0.2-0.2-0.3-0.2-0.5
			c-0.1-0.1-0.2-0.3-0.3-0.4c-0.1-0.1-0.2-0.2-0.4-0.2c-0.2-0.1-0.4-0.1-0.5-0.1h-0.6v2.7c0,0,0,0.1,0,0.1c0,0,0,0-0.1,0
			c0,0-0.1,0-0.1,0c-0.1,0-0.3,0-0.4,0c0,0-0.1,0-0.1,0c0,0-0.1,0-0.1,0c0,0,0,0,0-0.1v-5.9c0-0.1,0-0.2,0.1-0.3
			c0.1,0,0.1-0.1,0.2-0.1h1.5c0.2,0,0.3,0,0.4,0s0.2,0,0.3,0c0.2,0,0.5,0.1,0.7,0.2c0.2,0.1,0.4,0.2,0.5,0.4
			c0.1,0.1,0.2,0.3,0.3,0.5c0.1,0.2,0.1,0.4,0.1,0.6c0,0.2,0,0.4-0.1,0.6c-0.1,0.2-0.2,0.3-0.3,0.5c-0.1,0.1-0.3,0.2-0.4,0.3
			c-0.2,0.1-0.4,0.2-0.5,0.2c0.1,0,0.2,0.1,0.3,0.2c0.1,0.1,0.2,0.2,0.3,0.3c0.1,0.1,0.2,0.2,0.2,0.3c0.1,0.1,0.1,0.3,0.2,0.4
			l0.6,1.4c0,0.1,0.1,0.2,0.1,0.3C68.3,48,68.3,48,68.3,48.1z M66.9,43.6c0-0.2-0.1-0.4-0.2-0.6c-0.1-0.2-0.4-0.3-0.6-0.4
			c-0.1,0-0.2,0-0.3-0.1c-0.1,0-0.3,0-0.4,0h-0.8v2.2h0.9c0.2,0,0.4,0,0.6-0.1c0.2,0,0.3-0.1,0.4-0.2c0.1-0.1,0.2-0.2,0.2-0.3
			C66.9,43.9,66.9,43.7,66.9,43.6z"/>
		<path class="st6" d="M73.4,45.7c0,0.1,0,0.2-0.1,0.3C73.2,46,73.1,46,73,46h-3.1c0,0.2,0,0.5,0.1,0.7c0,0.2,0.1,0.4,0.3,0.5
			c0.1,0.1,0.3,0.3,0.5,0.3c0.2,0.1,0.5,0.1,0.7,0.1c0.2,0,0.4,0,0.6-0.1c0.2,0,0.3-0.1,0.5-0.1c0.1,0,0.2-0.1,0.3-0.1
			c0.1,0,0.1,0,0.2-0.1c0,0,0,0,0.1,0c0,0,0,0,0,0.1c0,0,0,0.1,0,0.1c0,0.1,0,0.1,0,0.2c0,0,0,0.1,0,0.1c0,0,0,0.1,0,0.1
			c0,0,0,0,0,0.1c0,0,0,0,0,0.1C73,48,73,48,72.9,48c-0.1,0-0.2,0.1-0.4,0.1c-0.2,0-0.3,0.1-0.5,0.1c-0.2,0-0.4,0-0.6,0
			c-0.3,0-0.7,0-1-0.2c-0.6-0.2-1-0.6-1.2-1.2C69,46.6,69,46.2,69,45.9c0-0.4,0-0.7,0.2-1c0.1-0.3,0.3-0.6,0.5-0.8
			c0.2-0.2,0.4-0.4,0.7-0.5c0.3-0.1,0.6-0.2,0.9-0.2c0.3,0,0.7,0,1,0.2c0.5,0.2,0.9,0.6,1,1.1c0.1,0.3,0.1,0.5,0.1,0.8L73.4,45.7z
			 M72.5,45.4c0-0.4-0.1-0.7-0.3-1c-0.2-0.3-0.6-0.4-1-0.4c-0.2,0-0.4,0-0.6,0.1c-0.2,0.1-0.3,0.2-0.4,0.3c-0.1,0.1-0.2,0.3-0.3,0.4
			c-0.1,0.2-0.1,0.3-0.1,0.5L72.5,45.4z"/>
		<path class="st6" d="M75.7,42.1c0,0.1,0,0.3-0.1,0.4c-0.1,0.1-0.3,0.1-0.4,0.1c-0.1,0-0.3,0-0.4-0.1c-0.1-0.1-0.1-0.2-0.1-0.4
			c0-0.1,0-0.3,0.1-0.4c0.1-0.1,0.3-0.1,0.4-0.1c0.1,0,0.3,0,0.4,0.1C75.6,41.8,75.7,42,75.7,42.1z M75.6,48.1
			C75.6,48.1,75.5,48.1,75.6,48.1c0,0.1-0.1,0.1-0.1,0.1c0,0-0.1,0-0.1,0c-0.1,0-0.1,0-0.2,0c-0.1,0-0.1,0-0.2,0c0,0-0.1,0-0.1,0
			c0,0-0.1,0-0.1,0c0,0,0,0,0-0.1v-4.5c0,0,0,0,0-0.1c0,0,0,0,0.1,0c0,0,0.1,0,0.1,0c0.1,0,0.1,0,0.2,0c0.1,0,0.1,0,0.2,0
			c0,0,0.1,0,0.1,0c0,0,0,0,0.1,0c0,0,0,0,0,0.1V48.1z"/>
		<path class="st6" d="M84.2,48.1C84.2,48.1,84.2,48.1,84.2,48.1c0,0.1-0.1,0.1-0.1,0.1c0,0-0.1,0-0.1,0c-0.1,0-0.1,0-0.2,0
			c-0.1,0-0.1,0-0.2,0c0,0-0.1,0-0.1,0c0,0-0.1,0-0.1,0c0,0,0,0,0-0.1v-2.7c0-0.2,0-0.3-0.1-0.5c0-0.1-0.1-0.3-0.2-0.4
			c-0.1-0.1-0.2-0.2-0.3-0.3c-0.1-0.1-0.3-0.1-0.4-0.1c-0.2,0-0.4,0.1-0.6,0.2c-0.2,0.2-0.5,0.4-0.7,0.6v3.1c0,0,0,0,0,0.1
			c0,0,0,0-0.1,0c0,0-0.1,0-0.1,0c-0.1,0-0.1,0-0.2,0c-0.1,0-0.1,0-0.2,0c0,0-0.1,0-0.1,0c0,0-0.1,0-0.1,0c0,0,0,0,0-0.1v-2.7
			c0-0.2,0-0.3-0.1-0.5c0-0.1-0.1-0.3-0.2-0.4c-0.1-0.1-0.2-0.2-0.3-0.3c-0.1-0.1-0.3-0.1-0.4-0.1c-0.2,0-0.4,0.1-0.6,0.2
			c-0.2,0.2-0.5,0.4-0.7,0.6v3.1c0,0,0,0,0,0.1c0,0,0,0-0.1,0c0,0-0.1,0-0.1,0c-0.1,0-0.1,0-0.2,0c-0.1,0-0.1,0-0.2,0
			c0,0-0.1,0-0.1,0c0,0-0.1,0-0.1,0c0,0,0,0,0-0.1v-4.5c0,0,0,0,0-0.1c0,0,0,0,0.1,0c0,0,0.1,0,0.1,0c0.1,0,0.1,0,0.2,0s0.1,0,0.2,0
			c0,0,0.1,0,0.1,0c0,0,0,0,0.1,0c0,0,0,0,0,0.1v0.6c0.2-0.2,0.5-0.5,0.8-0.6c0.2-0.1,0.5-0.2,0.8-0.2c0.2,0,0.4,0,0.5,0.1
			c0.1,0,0.3,0.1,0.4,0.2c0.1,0.1,0.2,0.2,0.3,0.3c0.1,0.1,0.2,0.2,0.2,0.4c0.1-0.1,0.3-0.3,0.5-0.4c0.1-0.1,0.3-0.2,0.4-0.3
			c0.1-0.1,0.3-0.1,0.4-0.2c0.1,0,0.3,0,0.4,0c0.3,0,0.5,0,0.8,0.2c0.2,0.1,0.4,0.2,0.5,0.4c0.1,0.2,0.2,0.4,0.3,0.6
			c0.1,0.2,0.1,0.5,0.1,0.7L84.2,48.1z"/>
		<path class="st6" d="M89.4,48.1C89.4,48.1,89.4,48.2,89.4,48.1c-0.1,0.1-0.1,0.1-0.2,0.1c-0.1,0-0.1,0-0.2,0c-0.1,0-0.1,0-0.2,0
			c0,0-0.1,0-0.1,0c0,0,0-0.1,0-0.1v-0.4c-0.2,0.2-0.4,0.4-0.7,0.5c-0.3,0.1-0.5,0.2-0.8,0.2c-0.2,0-0.5,0-0.7-0.1
			c-0.2-0.1-0.4-0.1-0.5-0.3c-0.1-0.1-0.3-0.3-0.3-0.4c-0.1-0.2-0.1-0.4-0.1-0.6c0-0.2,0.1-0.5,0.2-0.7c0.1-0.2,0.3-0.3,0.5-0.5
			c0.2-0.1,0.5-0.2,0.8-0.3c0.3-0.1,0.7-0.1,1-0.1h0.7v-0.3c0-0.2,0-0.3-0.1-0.5c0-0.1-0.1-0.2-0.2-0.3c-0.1-0.1-0.2-0.2-0.3-0.2
			c-0.2,0-0.3-0.1-0.5-0.1c-0.2,0-0.4,0-0.6,0.1c-0.2,0-0.3,0.1-0.4,0.2c-0.1,0.1-0.2,0.1-0.3,0.2c-0.1,0-0.1,0.1-0.2,0.1
			c0,0-0.1,0-0.1,0c0,0,0,0-0.1-0.1c0,0,0-0.1,0-0.1c0,0,0-0.1,0-0.1c0-0.1,0-0.1,0-0.2c0-0.1,0-0.1,0.1-0.1
			c0.1-0.1,0.2-0.1,0.2-0.2c0.1-0.1,0.3-0.1,0.4-0.2c0.2-0.1,0.3-0.1,0.5-0.1c0.2,0,0.4,0,0.5,0c0.3,0,0.6,0,0.9,0.1
			c0.2,0.1,0.4,0.2,0.6,0.3c0.2,0.1,0.3,0.3,0.3,0.5c0.1,0.2,0.1,0.5,0.1,0.7L89.4,48.1z M88.5,46h-0.7c-0.2,0-0.4,0-0.6,0.1
			c-0.2,0-0.3,0.1-0.4,0.2c-0.1,0.1-0.2,0.2-0.3,0.3c-0.1,0.1-0.1,0.2-0.1,0.4c0,0.2,0.1,0.4,0.2,0.6c0.2,0.1,0.4,0.2,0.7,0.2
			c0.2,0,0.4-0.1,0.6-0.2c0.2-0.1,0.4-0.3,0.6-0.5L88.5,46z"/>
		<path class="st6" d="M95,43.8c0,0.1,0,0.2-0.1,0.3c0,0-0.1,0.1-0.1,0.1h-0.7c0.1,0.1,0.2,0.2,0.3,0.4c0.1,0.1,0.1,0.3,0.1,0.4
			c0,0.2,0,0.5-0.1,0.7c-0.1,0.2-0.2,0.4-0.4,0.5c-0.2,0.1-0.4,0.2-0.6,0.3c-0.2,0.1-0.5,0.1-0.8,0.1c-0.2,0-0.4,0-0.6-0.1
			c-0.1,0-0.3-0.1-0.4-0.2c-0.1,0.1-0.1,0.1-0.2,0.2c0,0.1-0.1,0.2-0.1,0.3c0,0.1,0.1,0.2,0.2,0.3c0.1,0.1,0.3,0.1,0.5,0.1l1.2,0
			c0.2,0,0.4,0,0.7,0.1c0.2,0,0.4,0.1,0.5,0.2c0.1,0.1,0.3,0.2,0.3,0.4c0.1,0.2,0.1,0.3,0.1,0.5c0,0.2,0,0.4-0.1,0.6
			c-0.1,0.2-0.2,0.4-0.4,0.5c-0.2,0.2-0.5,0.3-0.7,0.3C93.3,50,93,50,92.6,50c-0.3,0-0.7,0-1-0.1c-0.2,0-0.5-0.1-0.7-0.3
			c-0.3-0.2-0.5-0.5-0.5-0.9c0-0.1,0-0.2,0-0.3c0-0.1,0.1-0.2,0.1-0.3c0.1-0.1,0.1-0.2,0.2-0.3c0.1-0.1,0.2-0.2,0.3-0.3
			c-0.2-0.1-0.3-0.2-0.4-0.3c-0.1-0.1-0.1-0.3-0.1-0.4c0-0.2,0-0.4,0.1-0.5c0.1-0.2,0.2-0.3,0.3-0.4c-0.1-0.1-0.2-0.3-0.3-0.4
			c-0.1-0.2-0.1-0.4-0.1-0.6c0-0.2,0-0.5,0.1-0.7c0.1-0.2,0.2-0.4,0.4-0.5c0.2-0.1,0.4-0.3,0.6-0.3c0.2-0.1,0.5-0.1,0.7-0.1
			c0.1,0,0.3,0,0.4,0c0.1,0,0.2,0,0.4,0.1h1.4c0.1,0,0.1,0,0.1,0.1C95,43.6,95,43.7,95,43.8z M94.1,48.5c0-0.2-0.1-0.4-0.3-0.4
			c-0.2-0.1-0.4-0.2-0.7-0.2l-1.2,0c-0.1,0.1-0.2,0.1-0.3,0.2c-0.1,0.1-0.1,0.1-0.2,0.2c0,0.1-0.1,0.1-0.1,0.2c0,0.1,0,0.1,0,0.2
			c0,0.2,0.1,0.4,0.3,0.5c0.3,0.1,0.6,0.2,1,0.2c0.2,0,0.4,0,0.7-0.1c0.2,0,0.3-0.1,0.4-0.2c0.1-0.1,0.2-0.2,0.2-0.3
			C94,48.8,94.1,48.6,94.1,48.5z M93.6,45c0-0.3-0.1-0.5-0.3-0.7c-0.2-0.2-0.5-0.3-0.8-0.3c-0.2,0-0.3,0-0.4,0.1
			c-0.1,0-0.2,0.1-0.3,0.2c-0.1,0.1-0.1,0.2-0.2,0.3c0,0.1-0.1,0.3-0.1,0.4c0,0.3,0.1,0.5,0.3,0.7c0.2,0.2,0.5,0.3,0.7,0.3
			c0.2,0,0.3,0,0.4-0.1c0.1,0,0.2-0.1,0.3-0.2c0.1-0.1,0.1-0.2,0.2-0.3C93.6,45.3,93.6,45.1,93.6,45z"/>
		<path class="st6" d="M97.1,42.1c0,0.1,0,0.3-0.1,0.4c-0.1,0.1-0.3,0.1-0.4,0.1c-0.1,0-0.3,0-0.4-0.1C96,42.4,96,42.3,96,42.1
			c0-0.1,0-0.3,0.1-0.4c0.1-0.1,0.3-0.1,0.4-0.1c0.1,0,0.3,0,0.4,0.1C97.1,41.8,97.1,42,97.1,42.1z M97,48.1
			C97,48.1,97,48.1,97,48.1c0,0.1-0.1,0.1-0.1,0.1c0,0-0.1,0-0.1,0c-0.1,0-0.1,0-0.2,0c-0.1,0-0.1,0-0.2,0c0,0-0.1,0-0.1,0
			c0,0-0.1,0-0.1,0c0,0,0,0,0-0.1v-4.5c0,0,0,0,0-0.1c0,0,0,0,0.1,0c0,0,0.1,0,0.1,0c0.1,0,0.1,0,0.2,0c0.1,0,0.1,0,0.2,0
			c0,0,0.1,0,0.1,0c0,0,0.1,0,0.1,0c0,0,0,0,0,0.1L97,48.1z"/>
		<path class="st6" d="M102.7,48.1C102.7,48.1,102.7,48.1,102.7,48.1c0,0.1-0.1,0.1-0.1,0.1c0,0-0.1,0-0.1,0c-0.1,0-0.1,0-0.2,0
			c-0.1,0-0.1,0-0.2,0c0,0-0.1,0-0.1,0c0,0,0,0-0.1,0c0,0,0,0,0-0.1v-2.6c0-0.2,0-0.4-0.1-0.6c0-0.1-0.1-0.3-0.2-0.4
			c-0.1-0.1-0.2-0.2-0.3-0.3c-0.1-0.1-0.3-0.1-0.4-0.1c-0.2,0-0.5,0.1-0.7,0.2c-0.3,0.2-0.5,0.4-0.7,0.6v3.1c0,0,0,0,0,0.1
			c0,0,0,0-0.1,0c0,0-0.1,0-0.1,0c-0.1,0-0.1,0-0.2,0c-0.1,0-0.1,0-0.2,0c0,0-0.1,0-0.1,0c0,0-0.1,0-0.1,0c0,0,0,0,0-0.1v-4.5
			c0,0,0,0,0-0.1c0,0,0,0,0.1,0c0,0,0.1,0,0.1,0c0,0,0.1,0,0.2,0s0.1,0,0.2,0c0,0,0.1,0,0.1,0c0,0,0,0,0.1,0c0,0,0,0,0,0.1v0.6
			c0.2-0.3,0.5-0.5,0.8-0.6c0.2-0.1,0.5-0.2,0.8-0.2c0.3,0,0.5,0,0.8,0.2c0.2,0.1,0.4,0.2,0.5,0.4c0.1,0.2,0.2,0.4,0.3,0.6
			c0.1,0.3,0.1,0.5,0.1,0.8L102.7,48.1z"/>
		<path class="st6" d="M108.4,45.7c0,0.1,0,0.2-0.1,0.3c-0.1,0.1-0.2,0.1-0.2,0.1h-3.1c0,0.2,0,0.5,0.1,0.7c0,0.2,0.1,0.4,0.3,0.5
			c0.1,0.1,0.3,0.3,0.5,0.3c0.2,0.1,0.5,0.1,0.7,0.1c0.2,0,0.4,0,0.6-0.1c0.2,0,0.3-0.1,0.5-0.1c0.1,0,0.2-0.1,0.3-0.1
			c0.1,0,0.1,0,0.2-0.1c0,0,0,0,0.1,0c0,0,0,0,0,0.1c0,0,0,0.1,0,0.1c0,0.1,0,0.1,0,0.2c0,0,0,0.1,0,0.1s0,0.1,0,0.1c0,0,0,0,0,0.1
			c0,0,0,0,0,0.1c-0.1,0-0.1,0.1-0.2,0.1c-0.1,0-0.2,0.1-0.4,0.1c-0.2,0-0.3,0.1-0.5,0.1c-0.2,0-0.4,0-0.6,0c-0.3,0-0.7,0-1-0.2
			c-0.6-0.2-1-0.6-1.2-1.2c-0.1-0.3-0.2-0.7-0.2-1.1c0-0.4,0-0.7,0.2-1c0.1-0.3,0.3-0.6,0.5-0.8c0.2-0.2,0.4-0.4,0.7-0.5
			c0.3-0.1,0.6-0.2,0.9-0.2c0.3,0,0.7,0,1,0.2c0.5,0.2,0.9,0.6,1,1.1c0.1,0.3,0.1,0.5,0.1,0.8L108.4,45.7z M107.5,45.4
			c0-0.4-0.1-0.7-0.3-1c-0.2-0.3-0.6-0.4-1-0.4c-0.2,0-0.4,0-0.6,0.1c-0.2,0.1-0.3,0.2-0.4,0.3c-0.1,0.1-0.2,0.3-0.3,0.4
			c-0.1,0.2-0.1,0.3-0.1,0.5L107.5,45.4z"/>
		<path class="st6" d="M117.4,42.7c0,0.1,0,0.1,0,0.2c0,0,0,0.1,0,0.1c0,0,0,0.1-0.1,0.1c0,0,0,0-0.1,0c-0.1,0-0.2-0.1-0.2-0.1
			c-0.1-0.1-0.3-0.1-0.4-0.2c-0.2-0.1-0.4-0.2-0.6-0.2c-0.3-0.1-0.5-0.1-0.8-0.1c-0.3,0-0.7,0.1-1,0.2c-0.3,0.1-0.5,0.3-0.8,0.5
			c-0.2,0.2-0.4,0.5-0.5,0.8c-0.2,0.7-0.2,1.4,0,2.1c0.1,0.3,0.3,0.6,0.5,0.8c0.2,0.2,0.5,0.4,0.8,0.5c0.3,0.1,0.6,0.2,1,0.2
			c0.2,0,0.4,0,0.6-0.1c0.2,0,0.4-0.1,0.6-0.2v-1.9h-1.6c-0.1,0-0.1,0-0.1-0.1c0-0.1-0.1-0.2,0-0.3c0-0.1,0-0.1,0-0.2
			c0,0,0-0.1,0-0.1c0,0,0,0,0.1-0.1c0,0,0.1,0,0.1,0h2.2c0,0,0.1,0,0.1,0c0,0,0.1,0,0.1,0.1c0,0,0.1,0.1,0.1,0.1c0,0.1,0,0.1,0,0.2
			v2.4c0,0.1,0,0.2,0,0.2c0,0.1-0.1,0.1-0.2,0.2c-0.1,0.1-0.3,0.1-0.4,0.2c-0.2,0.1-0.3,0.1-0.5,0.1c-0.3,0.1-0.7,0.1-1,0.1
			c-0.5,0-1-0.1-1.4-0.2c-0.4-0.1-0.8-0.4-1.1-0.7c-0.3-0.3-0.5-0.6-0.7-1c-0.3-0.9-0.3-1.8,0-2.7c0.2-0.4,0.4-0.8,0.7-1.1
			c0.3-0.3,0.7-0.5,1.1-0.7c0.4-0.2,0.9-0.2,1.4-0.2c0.2,0,0.5,0,0.7,0.1c0.2,0,0.4,0.1,0.6,0.2c0.2,0,0.3,0.1,0.4,0.2
			c0.1,0,0.2,0.1,0.3,0.2c0,0,0.1,0.1,0.1,0.1C117.4,42.5,117.4,42.6,117.4,42.7z"/>
		<path class="st6" d="M123.4,45.8c0,0.3,0,0.7-0.2,1c-0.1,0.3-0.3,0.6-0.5,0.8c-0.2,0.2-0.5,0.4-0.8,0.5c-0.3,0.1-0.7,0.2-1.1,0.2
			c-0.3,0-0.7,0-1-0.2c-0.3-0.1-0.5-0.3-0.7-0.5c-0.2-0.2-0.3-0.5-0.4-0.8c-0.1-0.3-0.1-0.7-0.1-1c0-0.3,0-0.7,0.2-1
			c0.1-0.3,0.2-0.6,0.5-0.8c0.2-0.2,0.5-0.4,0.8-0.5c0.3-0.1,0.7-0.2,1.1-0.2c0.3,0,0.7,0,1,0.2c0.3,0.1,0.5,0.3,0.7,0.5
			c0.2,0.2,0.3,0.5,0.4,0.8C123.3,45.1,123.4,45.5,123.4,45.8z M122.5,45.9c0-0.2,0-0.5-0.1-0.7c0-0.2-0.1-0.4-0.2-0.6
			c-0.1-0.2-0.3-0.3-0.4-0.4c-0.2-0.1-0.5-0.1-0.7-0.1c-0.2,0-0.5,0-0.7,0.1c-0.2,0.1-0.3,0.2-0.5,0.4c-0.1,0.2-0.2,0.4-0.3,0.6
			c-0.1,0.2-0.1,0.5-0.1,0.7c0,0.2,0,0.5,0.1,0.7c0,0.2,0.1,0.4,0.2,0.6c0.1,0.2,0.3,0.3,0.5,0.4c0.2,0.1,0.5,0.1,0.7,0.1
			c0.2,0,0.5,0,0.7-0.1c0.2-0.1,0.3-0.2,0.5-0.4c0.1-0.2,0.2-0.4,0.3-0.6C122.5,46.3,122.5,46.1,122.5,45.9L122.5,45.9z"/>
		<path class="st6" d="M128.5,43.6C128.5,43.6,128.5,43.6,128.5,43.6C128.5,43.7,128.5,43.7,128.5,43.6c0,0.1,0,0.1,0,0.1s0,0,0,0.1
			l-1.6,4.2c0,0,0,0.1-0.1,0.1c0,0-0.1,0-0.1,0.1c-0.1,0-0.1,0-0.2,0c-0.1,0-0.2,0-0.3,0s-0.2,0-0.3,0c-0.1,0-0.1,0-0.2,0
			c0,0-0.1,0-0.1-0.1c0,0,0-0.1-0.1-0.1l-1.6-4.2c0,0,0-0.1,0-0.1c0,0,0,0,0-0.1c0,0,0,0,0,0c0,0,0,0,0-0.1c0,0,0,0,0.1,0
			c0,0,0.1,0,0.1,0c0.1,0,0.1,0,0.2,0c0.1,0,0.2,0,0.2,0c0,0,0.1,0,0.1,0c0,0,0.1,0,0.1,0c0,0,0,0,0,0.1l1.3,3.7l0,0.1l0-0.1
			l1.3-3.7c0,0,0-0.1,0-0.1c0,0,0,0,0.1,0c0,0,0.1,0,0.1,0c0.1,0,0.1,0,0.2,0s0.1,0,0.2,0c0,0,0.1,0,0.1,0
			C128.5,43.5,128.5,43.5,128.5,43.6C128.5,43.6,128.5,43.6,128.5,43.6z"/>
		<path class="st6" d="M133.5,45.7c0,0.1,0,0.2-0.1,0.3c-0.1,0.1-0.2,0.1-0.2,0.1H130c0,0.2,0,0.5,0.1,0.7c0,0.2,0.1,0.4,0.3,0.5
			c0.1,0.1,0.3,0.3,0.5,0.3c0.2,0.1,0.5,0.1,0.7,0.1c0.2,0,0.4,0,0.6-0.1c0.2,0,0.3-0.1,0.5-0.1c0.1,0,0.2-0.1,0.3-0.1
			c0.1,0,0.1,0,0.2-0.1c0,0,0,0,0.1,0c0,0,0,0,0,0.1c0,0,0,0.1,0,0.1c0,0.1,0,0.1,0,0.2c0,0,0,0.1,0,0.1s0,0.1,0,0.1c0,0,0,0,0,0.1
			c0,0,0,0,0,0.1c-0.1,0-0.1,0.1-0.2,0.1c-0.1,0.1-0.2,0.1-0.4,0.1c-0.2,0-0.3,0.1-0.5,0.1c-0.2,0-0.4,0-0.6,0c-0.3,0-0.7,0-1-0.2
			c-0.6-0.2-1-0.6-1.2-1.2c-0.1-0.3-0.2-0.7-0.2-1.1c0-0.4,0-0.7,0.2-1c0.1-0.3,0.3-0.6,0.5-0.8c0.2-0.2,0.4-0.4,0.7-0.5
			c0.3-0.1,0.6-0.2,0.9-0.2c0.3,0,0.7,0,1,0.2c0.5,0.2,0.9,0.6,1,1.1c0.1,0.3,0.1,0.5,0.1,0.8L133.5,45.7z M132.6,45.4
			c0-0.4-0.1-0.7-0.3-1c-0.2-0.3-0.6-0.4-1-0.4c-0.2,0-0.4,0-0.6,0.1c-0.2,0.1-0.3,0.2-0.4,0.3c-0.1,0.1-0.2,0.3-0.3,0.4
			c-0.1,0.2-0.1,0.3-0.1,0.5L132.6,45.4z"/>
		<path class="st6" d="M137.6,43.9c0,0.1,0,0.1,0,0.2c0,0,0,0.1,0,0.1c0,0,0,0,0,0.1c0,0,0,0-0.1,0c0,0-0.1,0-0.1,0c0,0-0.1,0-0.1,0
			s-0.1,0-0.2,0c-0.1,0-0.1,0-0.2,0c-0.1,0-0.2,0-0.3,0c-0.1,0-0.2,0.1-0.3,0.2c-0.1,0.1-0.2,0.2-0.3,0.3c-0.1,0.1-0.2,0.3-0.3,0.5
			v2.9c0,0,0,0,0,0.1c0,0,0,0-0.1,0c0,0-0.1,0-0.1,0c-0.1,0-0.1,0-0.2,0c-0.1,0-0.1,0-0.2,0c0,0-0.1,0-0.1,0c0,0-0.1,0-0.1,0
			c0,0,0,0,0-0.1v-4.5c0,0,0,0,0-0.1c0,0,0,0,0.1,0c0,0,0.1,0,0.1,0c0.1,0,0.1,0,0.2,0s0.1,0,0.2,0c0,0,0.1,0,0.1,0c0,0,0,0,0.1,0
			c0,0,0,0,0,0.1v0.7c0.1-0.2,0.2-0.3,0.4-0.4c0.1-0.1,0.2-0.2,0.3-0.3c0.1-0.1,0.2-0.1,0.3-0.1c0.1,0,0.2,0,0.3,0c0,0,0.1,0,0.2,0
			c0.1,0,0.1,0,0.2,0c0.1,0,0.1,0,0.2,0c0,0,0.1,0,0.1,0c0,0,0,0,0,0c0,0,0,0,0,0.1c0,0,0,0.1,0,0.1
			C137.6,43.8,137.6,43.8,137.6,43.9z"/>
		<path class="st6" d="M142.7,48.1C142.7,48.1,142.7,48.1,142.7,48.1c0,0.1-0.1,0.1-0.1,0.1c0,0-0.1,0-0.1,0c-0.1,0-0.1,0-0.2,0
			c-0.1,0-0.1,0-0.2,0c0,0-0.1,0-0.1,0c0,0,0,0-0.1,0c0,0,0,0,0-0.1v-2.6c0-0.2,0-0.4-0.1-0.6c0-0.1-0.1-0.3-0.2-0.4
			c-0.1-0.1-0.2-0.2-0.3-0.3c-0.1-0.1-0.3-0.1-0.4-0.1c-0.2,0-0.5,0.1-0.7,0.2c-0.3,0.2-0.5,0.4-0.7,0.6v3.1c0,0,0,0,0,0.1
			c0,0,0,0-0.1,0c0,0-0.1,0-0.1,0c-0.1,0-0.1,0-0.2,0c-0.1,0-0.1,0-0.2,0c0,0-0.1,0-0.1,0c0,0-0.1,0-0.1,0c0,0,0,0,0-0.1v-4.5
			c0,0,0,0,0-0.1c0,0,0,0,0.1,0c0,0,0.1,0,0.1,0c0,0,0.1,0,0.2,0s0.1,0,0.2,0c0,0,0.1,0,0.1,0c0,0,0,0,0.1,0c0,0,0,0,0,0.1v0.6
			c0.2-0.3,0.5-0.5,0.8-0.6c0.2-0.1,0.5-0.2,0.8-0.2c0.3,0,0.5,0,0.8,0.2c0.2,0.1,0.4,0.2,0.5,0.4c0.1,0.2,0.2,0.4,0.3,0.6
			c0.1,0.3,0.1,0.5,0.1,0.8L142.7,48.1z"/>
		<path class="st6" d="M147.9,48.1C147.9,48.1,147.8,48.2,147.9,48.1c-0.1,0.1-0.1,0.1-0.2,0.1c-0.1,0-0.1,0-0.2,0
			c-0.1,0-0.1,0-0.2,0c0,0-0.1,0-0.1,0c0,0,0-0.1,0-0.1v-0.4c-0.2,0.2-0.4,0.4-0.7,0.5c-0.3,0.1-0.5,0.2-0.8,0.2
			c-0.2,0-0.5,0-0.7-0.1c-0.2-0.1-0.4-0.1-0.5-0.3c-0.1-0.1-0.3-0.3-0.3-0.4c-0.1-0.2-0.1-0.4-0.1-0.6c0-0.2,0.1-0.5,0.2-0.7
			c0.1-0.2,0.3-0.4,0.5-0.5c0.2-0.1,0.5-0.2,0.8-0.3c0.3-0.1,0.7-0.1,1-0.1h0.7v-0.3c0-0.2,0-0.3-0.1-0.5c0-0.1-0.1-0.2-0.2-0.3
			c-0.1-0.1-0.2-0.2-0.3-0.2c-0.2,0-0.3-0.1-0.5-0.1c-0.2,0-0.4,0-0.6,0.1c-0.2,0-0.3,0.1-0.4,0.2c-0.1,0.1-0.2,0.1-0.3,0.2
			c-0.1,0-0.1,0.1-0.2,0.1c0,0-0.1,0-0.1,0c0,0,0,0-0.1-0.1c0,0,0-0.1,0-0.1c0,0,0-0.1,0-0.1c0-0.1,0-0.1,0-0.2c0-0.1,0-0.1,0.1-0.1
			c0.1-0.1,0.2-0.1,0.2-0.2c0.1-0.1,0.3-0.1,0.4-0.2c0.2-0.1,0.3-0.1,0.5-0.1c0.2,0,0.4,0,0.5,0c0.3,0,0.6,0,0.9,0.1
			c0.2,0.1,0.4,0.2,0.6,0.3c0.2,0.1,0.3,0.3,0.3,0.5c0.1,0.2,0.1,0.5,0.1,0.7L147.9,48.1z M147,46h-0.7c-0.2,0-0.4,0-0.6,0.1
			c-0.2,0-0.3,0.1-0.4,0.2c-0.1,0.1-0.2,0.2-0.3,0.3c-0.1,0.1-0.1,0.2-0.1,0.4c0,0.2,0.1,0.4,0.2,0.6c0.2,0.1,0.4,0.2,0.7,0.2
			c0.2,0,0.4-0.1,0.6-0.2c0.2-0.1,0.4-0.3,0.6-0.5L147,46z"/>
		<path class="st6" d="M153.6,48.1C153.6,48.1,153.6,48.1,153.6,48.1c0,0.1-0.1,0.1-0.1,0.1c0,0-0.1,0-0.1,0c-0.1,0-0.1,0-0.2,0
			c-0.1,0-0.1,0-0.2,0c0,0-0.1,0-0.1,0c0,0,0,0-0.1,0c0,0,0,0,0-0.1v-2.6c0-0.2,0-0.4-0.1-0.6c0-0.1-0.1-0.3-0.2-0.4
			c-0.1-0.1-0.2-0.2-0.3-0.3c-0.1-0.1-0.3-0.1-0.4-0.1c-0.2,0-0.5,0.1-0.7,0.2c-0.3,0.2-0.5,0.4-0.7,0.6v3.1c0,0,0,0,0,0.1
			c0,0,0,0-0.1,0c0,0-0.1,0-0.1,0c-0.1,0-0.1,0-0.2,0c-0.1,0-0.1,0-0.2,0c0,0-0.1,0-0.1,0c0,0-0.1,0-0.1,0c0,0,0,0,0-0.1v-4.5
			c0,0,0,0,0-0.1c0,0,0,0,0.1,0c0,0,0.1,0,0.1,0c0,0,0.1,0,0.2,0s0.1,0,0.2,0c0,0,0.1,0,0.1,0c0,0,0,0,0.1,0c0,0,0,0,0,0.1v0.6
			c0.2-0.3,0.5-0.5,0.8-0.6c0.2-0.1,0.5-0.2,0.8-0.2c0.3,0,0.5,0,0.8,0.2c0.2,0.1,0.4,0.2,0.5,0.4c0.1,0.2,0.2,0.4,0.3,0.6
			c0.1,0.3,0.1,0.5,0.1,0.8L153.6,48.1z"/>
		<path class="st6" d="M158.6,47.4c0,0.1,0,0.1,0,0.1c0,0,0,0.1,0,0.1c0,0,0,0.1,0,0.1c0,0-0.1,0.1-0.1,0.1
			c-0.1,0.1-0.1,0.1-0.2,0.2c-0.1,0.1-0.2,0.1-0.4,0.2c-0.1,0.1-0.3,0.1-0.4,0.1c-0.2,0-0.3,0-0.5,0c-0.3,0-0.6,0-0.9-0.2
			c-0.3-0.1-0.5-0.3-0.7-0.5c-0.2-0.2-0.3-0.5-0.4-0.8c-0.1-0.3-0.1-0.7-0.1-1c0-0.4,0.1-0.8,0.2-1.1c0.1-0.3,0.3-0.6,0.5-0.8
			c0.2-0.2,0.4-0.4,0.7-0.4c0.3-0.1,0.6-0.1,0.9-0.1c0.1,0,0.3,0,0.4,0c0.1,0,0.3,0.1,0.4,0.1c0.1,0,0.2,0.1,0.3,0.1
			c0.1,0,0.1,0.1,0.2,0.1c0,0,0.1,0.1,0.1,0.1c0,0,0,0.1,0,0.1c0,0,0,0.1,0,0.1c0,0,0,0.1,0,0.1c0,0.1,0,0.2,0,0.3
			c0,0-0.1,0.1-0.1,0.1c-0.1,0-0.1,0-0.2-0.1c-0.1-0.1-0.2-0.1-0.3-0.2c-0.1-0.1-0.3-0.1-0.4-0.2c-0.2-0.1-0.4-0.1-0.5-0.1
			c-0.4,0-0.7,0.2-1,0.5c-0.2,0.4-0.4,0.9-0.3,1.3c0,0.3,0,0.5,0.1,0.8c0,0.2,0.1,0.4,0.3,0.5c0.1,0.1,0.3,0.3,0.4,0.3
			c0.2,0.1,0.4,0.1,0.6,0.1c0.2,0,0.4,0,0.5-0.1c0.1-0.1,0.3-0.1,0.4-0.2c0.1-0.1,0.2-0.1,0.3-0.2c0,0,0.1-0.1,0.2-0.1
			c0,0,0,0,0.1,0c0,0,0,0,0,0.1c0,0,0,0.1,0,0.1C158.6,47.3,158.6,47.3,158.6,47.4z"/>
		<path class="st6" d="M163.8,45.7c0,0.1,0,0.2-0.1,0.3c-0.1,0.1-0.2,0.1-0.2,0.1h-3.1c0,0.2,0,0.5,0.1,0.7c0,0.2,0.1,0.4,0.3,0.5
			c0.1,0.1,0.3,0.3,0.5,0.3c0.2,0.1,0.5,0.1,0.7,0.1c0.2,0,0.4,0,0.6-0.1c0.2,0,0.3-0.1,0.5-0.1c0.1,0,0.2-0.1,0.3-0.1
			c0.1,0,0.1,0,0.2-0.1c0,0,0,0,0.1,0c0,0,0,0,0,0.1c0,0,0,0.1,0,0.1c0,0.1,0,0.1,0,0.2c0,0,0,0.1,0,0.1s0,0.1,0,0.1c0,0,0,0,0,0.1
			c0,0,0,0,0,0.1c-0.1,0-0.1,0.1-0.2,0.1c-0.1,0-0.2,0.1-0.4,0.1c-0.2,0-0.3,0.1-0.5,0.1c-0.2,0-0.4,0-0.6,0c-0.3,0-0.7,0-1-0.2
			c-0.6-0.2-1-0.6-1.2-1.2c-0.1-0.3-0.2-0.7-0.2-1.1c0-0.4,0-0.7,0.2-1c0.1-0.3,0.3-0.6,0.5-0.8c0.2-0.2,0.4-0.4,0.7-0.5
			c0.3-0.1,0.6-0.2,0.9-0.2c0.3,0,0.7,0,1,0.2c0.5,0.2,0.9,0.6,1,1.1c0.1,0.3,0.1,0.5,0.1,0.8L163.8,45.7z M162.9,45.4
			c0-0.4-0.1-0.7-0.3-1c-0.2-0.3-0.6-0.4-1-0.4c-0.2,0-0.4,0-0.6,0.1c-0.2,0.1-0.3,0.2-0.4,0.3c-0.1,0.1-0.2,0.3-0.3,0.4
			c-0.1,0.2-0.1,0.3-0.1,0.5L162.9,45.4z"/>
	</g>
	<g>
		<path class="st5" d="M171,13.6c0,0.5-0.1,0.9-0.3,1.3c-0.2,0.4-0.4,0.8-0.7,1.1c-0.3,0.3-0.7,0.5-1.1,0.7
			c-0.4,0.2-0.8,0.3-1.3,0.3c-0.5,0-0.9-0.1-1.3-0.3c-0.4-0.2-0.8-0.4-1-0.7c-0.3-0.3-0.5-0.6-0.7-1.1c-0.2-0.4-0.2-0.9-0.2-1.3
			c0-0.5,0.1-0.9,0.3-1.3c0.2-0.4,0.4-0.8,0.7-1.1c0.3-0.3,0.7-0.5,1.1-0.7c0.4-0.2,0.8-0.3,1.3-0.3c0.5,0,0.9,0.1,1.3,0.3
			c0.4,0.2,0.8,0.4,1,0.7c0.3,0.3,0.5,0.6,0.7,1.1C170.9,12.7,171,13.1,171,13.6z M170.4,13.7c0-0.4-0.1-0.8-0.2-1.2
			c-0.1-0.3-0.3-0.6-0.6-0.9c-0.2-0.2-0.5-0.4-0.8-0.6c-0.3-0.1-0.7-0.2-1.1-0.2c-0.4,0-0.8,0.1-1.1,0.2c-0.3,0.1-0.6,0.3-0.8,0.6
			c-0.2,0.2-0.4,0.5-0.5,0.9c-0.1,0.3-0.2,0.7-0.2,1c0,0.4,0.1,0.8,0.2,1.2c0.1,0.3,0.3,0.6,0.6,0.9c0.2,0.2,0.5,0.4,0.8,0.6
			c0.3,0.1,0.7,0.2,1.1,0.2c0.4,0,0.8-0.1,1.1-0.2c0.3-0.1,0.6-0.3,0.8-0.6c0.2-0.2,0.4-0.5,0.5-0.9C170.3,14.4,170.4,14,170.4,13.7
			z M169.2,15.3C169.2,15.3,169.2,15.3,169.2,15.3c0,0.1,0,0.1-0.1,0.1c0,0-0.1,0-0.1,0c-0.1,0-0.1,0-0.2,0c-0.1,0-0.2,0-0.2,0
			c-0.1,0-0.1,0-0.1,0c0,0-0.1,0-0.1-0.1c0,0,0-0.1,0-0.1l-0.2-0.6c-0.1-0.2-0.2-0.4-0.3-0.5c-0.1-0.1-0.3-0.1-0.5-0.1h-0.2v1.3
			c0,0.1,0,0.1-0.1,0.1c0,0-0.1,0-0.3,0c-0.2,0-0.3,0-0.3,0c0,0-0.1-0.1-0.1-0.1V12c0-0.1,0-0.2,0.1-0.3c0.1-0.1,0.1-0.1,0.3-0.1
			h0.9c0.2,0,0.5,0,0.6,0.1s0.3,0.1,0.4,0.2s0.2,0.2,0.3,0.3c0.1,0.1,0.1,0.3,0.1,0.4c0,0.3-0.1,0.5-0.2,0.7
			c-0.2,0.2-0.4,0.3-0.6,0.3c0.1,0,0.3,0.1,0.4,0.2c0.1,0.1,0.2,0.3,0.3,0.5l0.2,0.6C169.2,15.2,169.2,15.3,169.2,15.3z M168.3,12.8
			c0-0.1,0-0.1,0-0.2c0-0.1-0.1-0.1-0.1-0.2c-0.1,0-0.1-0.1-0.2-0.1c-0.1,0-0.2,0-0.3,0h-0.4v1.1h0.4c0.3,0,0.5-0.1,0.6-0.2
			C168.2,13.1,168.3,13,168.3,12.8z"/>
	</g>
</g>
</svg>
