<svg xmlns="http://www.w3.org/2000/svg" width="148px" height="46px" viewBox="0 0 882.2 212.9">
    <defs>
        <style>.cls-1{fill:#fff;}.cls-2{fill:#fff;}.cls-3{fill:#fff;}.cls-4{fill:#fff;}.cls-5{fill:#fff;}.cls-6{fill:#fff;}.cls-7{fill:#fff;}</style>
    </defs>
    <g id="Layer_2" data-name="Layer 2">
        <g id="Layer_1-2" data-name="Layer 1">
            <path class="cls-1" d="M123.5,132.2a29.7,29.7,0,0,0-2.7,3.5l-42.6,74c-1.2,2.2-2.5,3.2-5.2,3.2-23-.2-46.1-.1-69.2-.1H0L122.6,0l1.6,2c11.9,20.4,23.7,40.8,35.7,61.2,1.1,1.9.9,3.3-.2,5.1l-34.8,60.4a17,17,0,0,0-1.4,3.5Z"/>
            <path class="cls-2" d="M123.5,132.2h0c1.1-.1,2.2-.4,3.4-.4h69.9c1.7,0,2.9.1,4,2L245,210.9a8.4,8.4,0,0,1,.7,1.6l-2.8.3H172.6c-1.8,0-3.2-.1-4.3-2.1q-22.1-38.7-44.2-77.2A7.5,7.5,0,0,1,123.5,132.2Z"/>
            <path class="cls-2" d="M724.9,131.6V54.4l63.2,55.2V59.5H801v76.4L738,81v50.6Z"/>
            <path class="cls-3" d="M579.4,131.6V58.5c9.9.9,19.6,1,29.1,2.7s15.1,10.9,14.4,19.9c-.4,4.8-3,8.3-6.7,11.5l1,.6c9.2,3.7,13.7,9.8,13.6,18.4s-5.9,15.2-14.5,17.9a36.9,36.9,0,0,1-10.4,2C597.1,131.8,588.4,131.6,579.4,131.6Zm12.9-9.6c6.1-.6,11.9-.8,17.6-1.8a9.8,9.8,0,0,0,8-9.2,9.7,9.7,0,0,0-7.4-9.8c-5.9-1.2-12-1.5-18.2-2.2Zm0-31.3c3.8-.4,7.4-.4,10.8-1.1s7.2-4.4,7.5-9.1-2-8.7-6.4-9.9-7.8-1.2-11.9-1.7Z"/>
            <path class="cls-4" d="M882.2,59.3l-39.5,33c13.3,12.9,26.3,25.8,39.4,38.6l-.5.9c-5.2,0-10.3.1-15.5-.1-1.1,0-2.3-1.1-3.1-1.9-9.3-9.4-18.5-18.9-27.6-28.4-.6-.6-1.1-1.3-1.6-1.9h-1.2c-.6,1.7-1.7,3.4-1.7,5.1-.2,8.9-.1,17.8-.1,26.9h-13v-72h13V88.2l14-12c5.9-5,11.7-10.1,17.7-15a9.8,9.8,0,0,1,5.1-1.8C872,59.1,876.5,59.3,882.2,59.3Z"/>
            <path class="cls-5" d="M364.5,131.8c-4.7,0-8.7.1-12.7-.1a4.2,4.2,0,0,1-2.8-2.1c-2.4-4.2-4.6-8.6-6.7-12.9a4,4,0,0,0-4.1-2.6c-10.6.1-21.2.1-31.7,0a4.2,4.2,0,0,0-4.2,2.5,144.3,144.3,0,0,1-7.1,12.8,5.4,5.4,0,0,1-3.6,2.3c-3.7.3-7.4.1-11.7.1l43-77.2ZM322.7,79.3c-4.6,8.3-8.9,16.2-13.4,24.5h26.2C331.2,95.6,327.1,87.6,322.7,79.3Z"/>
            <path class="cls-5" d="M631.7,131.8l.9-1.9,42-75.3,41.6,77.2c-4.8,0-8.9.1-13-.1a3.8,3.8,0,0,1-2.5-1.9c-2.3-4.2-4.5-8.6-6.6-12.9a4.1,4.1,0,0,0-4.3-2.8c-10.6.1-21.2,0-31.7.2a5.4,5.4,0,0,0-3.8,2.2c-2.7,4.3-5,8.9-7.5,13.3a4.1,4.1,0,0,1-2.6,1.9C640.3,131.9,636.2,131.8,631.7,131.8ZM661,103.7h26.2L674.4,79.3C669.8,87.7,665.4,95.5,661,103.7Z"/>
            <path class="cls-6" d="M401,104c-6.1,8.6-12,16.6-17.7,24.8-1.6,2.3-3.3,3.2-6,3s-6.9,0-10.8,0a30.6,30.6,0,0,1,1.8-2.9c7.7-10.7,15.4-21.4,23.2-32,1.8-2.4,1.6-3.8,0-6.1-6.6-9.3-13.1-18.7-19.6-28.1l-2.1-3.4c4.9,0,9.3-.2,13.6.1,1,.1,2.1,1.4,2.8,2.3,5,7.2,9.9,14.5,15,22,5.4-7.5,10.6-14.7,15.6-22,1.3-1.7,2.5-2.6,4.7-2.5,3.7.2,7.5.1,12.2.1L421.1,76.7,408.7,93.9c8.6,12.4,17.2,24.9,26.3,37.9-5,0-9.3.1-13.7-.1-.9-.1-2-1.4-2.7-2.4C412.8,121.1,407.1,112.8,401,104Z"/>
            <path class="cls-6" d="M525.1,70.1l-10.4,5.2c-4.4-7-10.9-8.4-18.3-6.3a12.6,12.6,0,0,0-4.4,2.4c-4,3.1-4.1,8.5.3,11s9.1,3.9,13.7,5.8,8.2,3.2,11.9,5.4c11.3,6.7,13.1,21.2,4,30.8s-29.7,11.8-40.9,3.1c-5.1-3.9-7.9-9.1-9.1-15.7l13-2.5c.2.8.4,1.3.5,1.9,2.6,10.1,12.9,14.8,22.2,9.9,4.1-2.1,6.6-5.4,6.7-10.1a9.7,9.7,0,0,0-6-9.7c-6-2.7-12.2-4.7-18.1-7.4a36.9,36.9,0,0,1-9.3-5.7,14.9,14.9,0,0,1-2.3-20.3C489,53.5,515.9,54.7,525.1,70.1Z"/>
            <path class="cls-7" d="M446.9,59.4h12.8v72.1H446.9Z"/>
        </g>
    </g>
</svg>