<svg xmlns="http://www.w3.org/2000/svg" xmlns:xlink="http://www.w3.org/1999/xlink" viewBox="0 0 120.326 28.26"><defs><style>.cls-1{fill:url(#radial-gradient);}.cls-2{fill:#0464ad;}.cls-3{fill:#ffd85f;}.cls-4{fill:#2562ae;}</style><radialGradient id="radial-gradient" cx="13.74" cy="7.737" r="4.774" gradientUnits="userSpaceOnUse"><stop offset="0" stop-color="#fff"/><stop offset="1" stop-color="#5ac9e9"/></radialGradient></defs><g id="Layer_2" data-name="Layer 2"><g id="Layer_1-2" data-name="Layer 1"><circle class="cls-1" cx="13.74" cy="7.737" r="4.774"/><path class="cls-2" d="M14.239,0c.191.029.381.067.573.084a.311.311,0,0,1,.322.341c.008.214.048.428.048.642a.25.25,0,0,0,.225.284c.612.163.61.169,1-.331.051-.066.114-.125.159-.2.118-.183.259-.178.43-.079.209.122.421.241.64.342a.3.3,0,0,1,.174.41c-.071.22-.129.447-.22.659-.067.157-.012.234.1.326.5.4.493.4,1.054.095.073-.04.149-.077.219-.123a.276.276,0,0,1,.43.078c.15.2.317.392.479.584a.279.279,0,0,1,0,.42c-.2.222-.384.457-.579.692.109.207.208.418.331.613a.284.284,0,0,0,.216.1c.251-.009.5-.039.751-.068a.271.271,0,0,1,.343.235c.061.252.142.5.228.746a.26.26,0,0,1-.157.361,7.434,7.434,0,0,0-.67.346c-.069.043-.087.166-.127.253,0,.007.006.019.005.027-.1.594.278.746.757.841.407.081.406.106.385.522-.011.223-.038.446-.059.668-.018.186-.138.249-.306.26a4.793,4.793,0,0,1-.641.048c-.222-.012-.259.112-.336.276-.2.418-.083.671.3.928.487.33.464.364.178.886-.34.622-.34.622-1.028.4a1.219,1.219,0,0,0-.294-.082.311.311,0,0,0-.222.072c-.152.163-.286.344-.44.535.138.251.272.515.425.768a.286.286,0,0,1-.073.433c-.206.16-.407.328-.607.5a.275.275,0,0,1-.4-.012c-.177-.152-.357-.3-.53-.457a.27.27,0,0,0-.343-.042c-.408.174-.616.378-.513.892.115.578.052.589-.537.768-.727.22-.586.276-.95-.411-.078-.146-.155-.293-.234-.443-.091.016-.164.032-.236.041-.607.077-.607.077-.777.68a.841.841,0,0,1-.1.287.427.427,0,0,1-.267.173A4.978,4.978,0,0,1,12.5,15.3a.349.349,0,0,1-.221-.228c-.052-.255-.044-.521-.093-.776a.364.364,0,0,0-.207-.23c-.611-.205-.613-.2-1.005.305-.062.081-.114.187-.2.232a.468.468,0,0,1-.337.066c-.258-.1-.5-.254-.744-.384a.258.258,0,0,1-.13-.371,4.8,4.8,0,0,0,.214-.691c.018-.086-.048-.191-.076-.286,0-.008-.013-.014-.02-.02-.5-.408-.5-.408-1.075-.085a.715.715,0,0,1-.247.126.487.487,0,0,1-.337-.061,8.326,8.326,0,0,1-.541-.641.25.25,0,0,1,0-.372c.175-.194.34-.4.5-.6a.233.233,0,0,0,.055-.187,4.847,4.847,0,0,0-.317-.59.24.24,0,0,0-.191-.064c-.232.019-.465.043-.694.085-.212.04-.339-.018-.4-.236-.068-.261-.17-.514-.217-.777A.375.375,0,0,1,6.359,9.2c.207-.141.448-.229.66-.363a.362.362,0,0,0,.146-.253A2.159,2.159,0,0,0,7.11,8.03a.293.293,0,0,0-.176-.164c-.229-.078-.464-.136-.7-.2A.284.284,0,0,1,6,7.32c.035-.269.042-.542.1-.8a.374.374,0,0,1,.244-.229,4.571,4.571,0,0,1,.695-.068c.167-.01.239-.088.316-.246a.648.648,0,0,0-.318-.988,2.2,2.2,0,0,1-.2-.152.292.292,0,0,1-.091-.453c.126-.207.235-.424.348-.638.09-.17.2-.264.4-.16a1.316,1.316,0,0,0,.213.064c.638.2.643.2,1.049-.319a.327.327,0,0,0,.031-.281c-.1-.229-.235-.445-.359-.663a.256.256,0,0,1,.07-.368c.219-.176.423-.371.655-.525a.374.374,0,0,1,.337,0c.209.137.381.33.587.474a.359.359,0,0,0,.307.03c.588-.3.585-.309.5-.974-.061-.475-.047-.5.4-.63.187-.056.375-.109.56-.17a.268.268,0,0,1,.366.155c.095.191.211.374.289.572s.209.225.409.229A.631.631,0,0,0,13.64.536,2.263,2.263,0,0,1,13.847,0ZM18.35,12.933c-.148-.27-.3-.514-.415-.776a.4.4,0,0,1,.038-.331c.171-.242.388-.452.559-.694A.32.32,0,0,1,18.95,11c.255.083.51.163.761.244.317-.468.317-.469-.1-.806-.091-.074-.181-.149-.276-.218a.312.312,0,0,1-.107-.4c.1-.279.158-.571.266-.846a.405.405,0,0,1,.258-.211c.227-.048.466-.041.7-.078a.273.273,0,0,0,.19-.14c.11-.318.033-.45-.285-.54l-.181-.053c-.5-.141-.5-.141-.549-.638-.012-.117-.034-.232-.045-.349-.051-.541-.05-.541.449-.795.469-.24.469-.24.291-.736,0-.006-.014-.009-.055-.032-.237.024-.506.039-.77.083a.3.3,0,0,1-.37-.178c-.129-.266-.265-.531-.419-.783a.3.3,0,0,1,.039-.411c.145-.161.291-.322.42-.494a.26.26,0,0,0,.046-.224,2.846,2.846,0,0,0-.289-.362c-.261.144-.507.274-.746.415a.291.291,0,0,1-.388-.042q-.334-.294-.688-.567a.3.3,0,0,1-.117-.375c.089-.262.171-.526.262-.808l-.5-.274c-.184.226-.363.428-.522.646a.31.31,0,0,1-.413.128,5.841,5.841,0,0,0-.77-.236.351.351,0,0,1-.316-.367c-.015-.266-.044-.531-.066-.788a2.033,2.033,0,0,1-.306-.047c-.205-.066-.292.015-.334.214s-.124.394-.167.6a.268.268,0,0,1-.281.234c-.306.023-.612.038-.915.08a.283.283,0,0,1-.336-.191c-.121-.249-.257-.49-.39-.74a2.329,2.329,0,0,1-.273.075c-.227.033-.291.161-.252.376a2.5,2.5,0,0,1,.064.562.456.456,0,0,1-.161.319c-.255.167-.537.29-.8.443a.283.283,0,0,1-.385-.039c-.206-.189-.428-.359-.652-.544-.072.056-.144.109-.212.167s-.143.128-.221.2c.074.136.137.254.2.372.306.56.306.56-.1,1.042-.035.042-.071.083-.1.125-.362.457-.362.457-.914.279-.5-.16-.5-.16-.718.318a.26.26,0,0,0,0,.056c.2.161.416.337.635.508a.3.3,0,0,1,.112.4,6.184,6.184,0,0,0-.257.82.309.309,0,0,1-.338.271c-.268.011-.535.043-.806.067l-.064.564c.292.085.55.164.81.233a.3.3,0,0,1,.255.3c.017.3.039.593.079.887a.317.317,0,0,1-.214.378c-.243.111-.475.242-.72.368L7.079,10c.3-.034.564-.063.832-.1a.308.308,0,0,1,.359.208,5.181,5.181,0,0,0,.391.736.321.321,0,0,1-.047.454c-.179.2-.348.409-.524.616l.366.437c.256-.14.5-.266.743-.407a.287.287,0,0,1,.389.04c.131.123.265.245.406.357.529.42.5.249.287.911-.165.5-.165.5.316.722.013.007.033,0,.064,0,.158-.2.332-.392.482-.6a.323.323,0,0,1,.44-.123,6.659,6.659,0,0,0,.773.229.345.345,0,0,1,.3.382c.006.252.039.5.064.786l.556.038c.021-.057.035-.09.045-.123.048-.154.1-.308.142-.463.126-.437.126-.435.564-.46.117-.007.232-.035.349-.048.579-.064.579-.063.848.457.245.475.245.475.736.273.007,0,.011-.014.031-.042-.028-.248-.055-.515-.09-.781a.33.33,0,0,1,.217-.383c.252-.117.5-.254.736-.394a.309.309,0,0,1,.414.035c.2.186.426.354.649.537Z"/><path class="cls-2" d="M4.6,22.174c-.135-.619-.256-1.219-.4-1.813a.727.727,0,0,0-.248-.322Q2.117,18.449.281,16.87A.745.745,0,0,1,0,16.232c.028-.483.078-.964.118-1.446a3.575,3.575,0,0,0,.038-.554A15.916,15.916,0,0,1,.613,8.687a12.728,12.728,0,0,1,1.813-3.9.635.635,0,0,1,.959-.177,1.555,1.555,0,0,1,.632,1.524c-.155,1.341-.355,2.678-.538,4.016a.573.573,0,0,0,.162.495,15.588,15.588,0,0,1,1.34,1.68,5.128,5.128,0,0,0,2.026,1.914,4.576,4.576,0,0,1,2.3,3.056,17.253,17.253,0,0,1,.618,4.275c.008.2,0,.406,0,.616.105.011.158.02.212.021.518.008.518.008.518.512q0,2.565,0,5.13c0,.389-.025.414-.416.414H4.4c-.373,0-.414-.041-.414-.421V22.793C3.989,22.243,3.989,22.243,4.6,22.174Zm4.847.017a23.948,23.948,0,0,0-.615-4.605,3.968,3.968,0,0,0-2.384-2.911,4.238,4.238,0,0,1-1.627-1.531c-.448-.646-.959-1.249-1.454-1.861a1.38,1.38,0,0,0-.835-.49c-.535-.106-1.548.471-.624,1.487a17.321,17.321,0,0,0,1.219,1.361,8.534,8.534,0,0,1,1.939,2.523.8.8,0,0,1-.27.75c-.232.14-.291-.4-.351-.53A10.167,10.167,0,0,0,2.16,13.55a10.762,10.762,0,0,1-.751-.845,1.688,1.688,0,0,1-.294-1.877A1.214,1.214,0,0,1,2.493,10.1c.208.04.131.1.355.147.036-.271.072-.526.1-.782C3.091,8.4,3.56,5.652,3.346,5.4c-.191-.227-.365-.208-.529.03a11.893,11.893,0,0,0-1.29,2.5A13.95,13.95,0,0,0,.715,13.58c.017.408.019.819,0,1.227-.018.438-.077.873-.094,1.31a.464.464,0,0,0,.137.322c1.068.946,2.124,1.908,3.229,2.809a2,2,0,0,1,.787,1.281c.073.446.352,1.225.429,1.662Zm.585.632H4.62v4.82h5.407Z"/><path class="cls-2" d="M18.779,7.748a4.888,4.888,0,0,1-5.048,5.008,5.019,5.019,0,1,1,.02-10.037A4.891,4.891,0,0,1,18.779,7.748Zm-4.812-.235h1.995c-.051-.445-.094-.867-.151-1.287-.061-.451-.064-.467-.495-.537s-.892-.107-1.349-.159Zm0,2.451c.557-.078,1.081-.148,1.6-.229.062-.009.158-.069.166-.117.085-.544.156-1.091.234-1.656h-2ZM11.507,7.512h2V5.517c-.555.075-1.087.142-1.617.225a.251.251,0,0,0-.154.169C11.652,6.432,11.584,6.956,11.507,7.512Zm0,.447c.08.562.154,1.1.239,1.639a.193.193,0,0,0,.124.129c.538.084,1.077.157,1.629.234v-2Zm3.557-4.591a5.213,5.213,0,0,1,.971,1.855.35.35,0,0,0,.176.212,5.365,5.365,0,0,1,1.9.977A4.422,4.422,0,0,0,15.063,3.368Zm0,8.747A4.4,4.4,0,0,0,18.1,9.068a5.324,5.324,0,0,1-1.849.96.375.375,0,0,0-.215.207A5.331,5.331,0,0,1,15.061,12.115Zm-5.684-5.7a5.454,5.454,0,0,1,1.913-.98c.066-.02.119-.121.154-.195.236-.5.46-1.009.7-1.509a2.812,2.812,0,0,1,.265-.371A4.452,4.452,0,0,0,9.377,6.415Zm2.92,5.667c-.253-.528-.553-1.072-.771-1.648a.765.765,0,0,0-.5-.5c-.569-.23-1.114-.52-1.634-.769A4.416,4.416,0,0,0,12.3,12.082Zm1.673-8.93V5.1l1.63.169A3.107,3.107,0,0,0,13.97,3.152Zm0,9.17A3.086,3.086,0,0,0,15.6,10.205l-1.631.172ZM11.091,7.514l.172-1.622A3.1,3.1,0,0,0,9.151,7.514ZM9.206,7.96c.068.632,1.167,1.47,2.054,1.573L11.089,7.96Zm4.3-4.751c-.675.014-1.46,1.349-1.565,2.057L13.505,5.1Zm0,9.058V10.361c-.272-.018-.533-.027-.791-.054s-.511-.073-.773-.112C12.036,10.9,12.824,12.249,13.5,12.267Zm2.9-4.737h1.761A.875.875,0,0,0,18.3,7.51a2.7,2.7,0,0,0-2.071-1.561Zm1.891.437h-1.9c-.028.281-.05.539-.079.8s-.063.51-.095.767A2.7,2.7,0,0,0,18.3,7.967Z"/><path class="cls-2" d="M22.18,22.174c.135-.619.256-1.219.4-1.813a.742.742,0,0,1,.248-.322q1.827-1.59,3.663-3.169a.741.741,0,0,0,.279-.638c-.027-.483-.077-.964-.117-1.446a3.575,3.575,0,0,1-.038-.554,15.94,15.94,0,0,0-.456-5.545,12.73,12.73,0,0,0-1.814-3.9.634.634,0,0,0-.958-.177,1.553,1.553,0,0,0-.632,1.524c.155,1.341.354,2.678.537,4.016a.569.569,0,0,1-.161.495,15.466,15.466,0,0,0-1.34,1.68,5.128,5.128,0,0,1-2.026,1.914,4.573,4.573,0,0,0-2.3,3.056,17.16,17.16,0,0,0-.618,4.275c-.008.2,0,.406,0,.616-.1.011-.158.02-.212.021-.517.008-.517.008-.517.512v5.13c0,.389.026.414.417.414h5.831c.373,0,.413-.041.413-.421q0-2.523,0-5.046C22.786,22.243,22.786,22.243,22.18,22.174Zm-4.847.017a23.87,23.87,0,0,1,.615-4.605,3.968,3.968,0,0,1,2.384-2.911,4.235,4.235,0,0,0,1.626-1.531c.448-.646.96-1.249,1.454-1.861a1.385,1.385,0,0,1,.836-.49c.534-.106,1.548.471.624,1.487a17.321,17.321,0,0,1-1.219,1.361,8.534,8.534,0,0,0-1.939,2.523.8.8,0,0,0,.269.75c.233.14.291-.4.352-.53a10.149,10.149,0,0,1,2.28-2.834,10.749,10.749,0,0,0,.75-.845,1.687,1.687,0,0,0,.3-1.877,1.214,1.214,0,0,0-1.378-.732c-.208.04-.131.1-.355.147-.037-.271-.072-.526-.105-.782-.138-1.057-.607-3.809-.393-4.063.191-.227.365-.208.529.03a11.893,11.893,0,0,1,1.29,2.5,13.949,13.949,0,0,1,.811,5.651c-.016.408-.018.819,0,1.227.018.438.077.873.094,1.31a.459.459,0,0,1-.137.322c-1.067.946-2.123,1.908-3.228,2.809A2,2,0,0,0,22,20.529c-.072.446-.352,1.225-.429,1.662Zm-.585.632h5.407v4.82H16.748Z"/><path class="cls-3" d="M17.329,22.213a23.87,23.87,0,0,1,.615-4.605A3.966,3.966,0,0,1,20.328,14.7a4.245,4.245,0,0,0,1.626-1.532c.448-.645.959-1.248,1.454-1.86a1.38,1.38,0,0,1,.836-.49c.534-.106,1.548.471.624,1.487a17.313,17.313,0,0,1-1.22,1.361,8.567,8.567,0,0,0-1.939,2.523.8.8,0,0,0,.27.75c.232.14.291-.4.352-.53a10.131,10.131,0,0,1,2.28-2.834,10.749,10.749,0,0,0,.75-.845,1.689,1.689,0,0,0,.295-1.877,1.213,1.213,0,0,0-1.378-.732c-.208.04-.131.095-.355.147-.037-.272-.072-.527-.106-.782-.138-1.057-.606-3.809-.392-4.063.191-.227.365-.209.529.03a11.893,11.893,0,0,1,1.29,2.5,13.949,13.949,0,0,1,.811,5.651c-.016.408-.018.819,0,1.227.018.437.077.873.094,1.31a.461.461,0,0,1-.137.322c-1.067.946-2.123,1.907-3.228,2.809a2,2,0,0,0-.788,1.28c-.072.447-.352,1.225-.429,1.663Z"/><path class="cls-3" d="M16.744,22.845h5.407v4.82H16.744Z"/><path class="cls-3" d="M9.427,22.171a23.87,23.87,0,0,0-.615-4.6,3.97,3.97,0,0,0-2.384-2.912A4.238,4.238,0,0,1,4.8,13.124c-.448-.646-.959-1.248-1.453-1.861a1.39,1.39,0,0,0-.836-.49c-.535-.106-1.548.471-.624,1.487a17.335,17.335,0,0,0,1.219,1.362,8.521,8.521,0,0,1,1.939,2.523.8.8,0,0,1-.269.749c-.233.14-.292-.4-.352-.529a10.139,10.139,0,0,0-2.28-2.835,10.784,10.784,0,0,1-.751-.845A1.688,1.688,0,0,1,1.1,10.808a1.212,1.212,0,0,1,1.378-.731c.208.04.131.094.355.146.037-.271.072-.526.1-.781.138-1.057.607-3.809.393-4.064-.191-.227-.365-.208-.529.031a11.91,11.91,0,0,0-1.29,2.5A13.969,13.969,0,0,0,.7,13.56c.017.409.019.819,0,1.228-.018.437-.077.872-.093,1.309a.459.459,0,0,0,.136.322c1.068.947,2.124,1.908,3.229,2.809a2,2,0,0,1,.788,1.281c.072.446.352,1.225.429,1.662Z"/><path class="cls-3" d="M10.012,22.8H4.605v4.82h5.407Z"/><path class="cls-4" d="M36.387,21.667V6.563H47.154V8.439H38.418v4.512h8.07v1.763h-8.07V19.78h8.91v1.887Z"/><path class="cls-4" d="M53.142,21.667V8.4H48.374V6.563h11.6V8.4H55.2V21.667Z"/><path class="cls-4" d="M61.8,21.667V6.563h2.05v6.2h7.834v-6.2h2.062v15.1H71.681V14.591H63.847v7.076Z"/><path class="cls-4" d="M77.024,21.667V6.563h2.051v15.1Z"/><path class="cls-4" d="M92.937,16.058h1.99a6.161,6.161,0,0,1-1.882,4.394,6.347,6.347,0,0,1-4.517,1.635,6.154,6.154,0,0,1-5-2.174,9.136,9.136,0,0,1-1.809-6.019,8.055,8.055,0,0,1,1.9-5.635,6.575,6.575,0,0,1,5.116-2.086,6.464,6.464,0,0,1,4.2,1.323,5.183,5.183,0,0,1,1.892,3.609h-2.01a3.6,3.6,0,0,0-1.363-2.3A4.562,4.562,0,0,0,88.651,8a4.274,4.274,0,0,0-3.563,1.61,7.192,7.192,0,0,0-1.266,4.543,6.971,6.971,0,0,0,1.317,4.439,4.223,4.223,0,0,0,3.492,1.672,4.171,4.171,0,0,0,3.04-1.154A4.337,4.337,0,0,0,92.937,16.058Z"/><path class="cls-4" d="M95.665,21.667l5.608-15.1h2.267l5.63,15.1h-2.226l-1.6-4.512H99.4l-1.61,4.512Zm4.368-6.276h4.707L102.4,8.726Z"/><path class="cls-4" d="M110.728,21.667V6.563H112.8v13.2h7.526v1.908Z"/></g></g></svg>