<?xml version="1.0" encoding="UTF-8"?>
<svg version="1.1" xmlns="http://www.w3.org/2000/svg" width="894" height="335">
<path d="M0 0 C1.01043635 -0.00115384 2.0208727 -0.00230769 3.06192833 -0.0034965 C6.45101083 -0.00614539 9.84004591 -0.0016552 13.22912598 0.00279331 C15.68203715 0.00235726 18.13494828 0.00148172 20.58785915 0.00020415 C25.92250482 -0.00156659 31.25713628 -0.00023128 36.59177971 0.00384235 C44.52417095 0.00988282 52.45655516 0.01017765 60.38894828 0.00930037 C73.73314742 0.00798704 87.07734161 0.01132569 100.42153931 0.01731777 C113.63351465 0.02323527 126.84548794 0.02708382 140.0574646 0.02817059 C140.87901832 0.02823933 141.70057205 0.02830806 142.54702134 0.02837889 C146.7192963 0.02871722 150.89157126 0.02901861 155.06384623 0.02930576 C184.61422083 0.03140604 214.16459274 0.03814303 243.71496582 0.04760838 C272.42232245 0.05679308 301.12967833 0.06385965 329.83703613 0.06811619 C331.64232433 0.06838683 333.44761252 0.06865753 335.25290072 0.0689283 C349.92167985 0.07111708 364.59045901 0.07315965 379.25923817 0.07516678 C447.0910002 0.08455361 514.9227552 0.10462419 582.7545166 0.12304783 C582.7545166 91.53304783 582.7545166 182.94304783 582.7545166 277.12304783 C434.24186966 277.24418376 434.24186966 277.24418376 377.31859851 277.26754272 C362.43421292 277.27366611 347.54982741 277.27992975 332.66544206 277.28662581 C330.8651465 277.28743534 329.06485094 277.28824045 327.26455538 277.28904109 C298.58394262 277.30183279 269.90334764 277.3243375 241.22274562 277.35193949 C211.73641253 277.38026525 182.25008926 277.39871065 152.76374279 277.4047928 C148.59530151 277.40565721 144.42686027 277.40663412 140.25841904 277.40767956 C139.02785238 277.40798296 139.02785238 277.40798296 137.77242579 277.40829249 C124.58721325 277.4118323 111.40203119 277.42573203 98.21683106 277.44354393 C84.94877627 277.46124529 71.68075158 277.46794186 58.41268541 277.46355196 C50.53797728 277.46127696 42.66337961 277.46729291 34.78869151 277.48544046 C28.8947621 277.49809035 23.00090802 277.49489091 17.10696994 277.48574451 C14.73250358 277.48448256 12.35802774 277.48823924 9.98357989 277.49769738 C-7.14040893 277.5619072 -23.56955865 276.68136551 -39.8704834 270.93554783 C-40.74237305 270.6358408 -41.6142627 270.33613377 -42.51257324 270.0273447 C-77.42964497 257.64132913 -106.03320611 232.08115679 -122.0579834 198.68554783 C-137.8854774 164.62603765 -139.65286736 126.03654014 -127.17712402 90.59472752 C-121.05486514 74.35213084 -112.37466187 60.41061243 -101.2454834 47.12304783 C-100.65895996 46.41277439 -100.07243652 45.70250095 -99.46813965 44.97070408 C-75.45609562 16.6027337 -36.87958966 -0.10413507 0 0 Z " fill="#003251" transform="translate(278.2454833984375,28.876952171325684)"/>
<path d="M0 0 C1.55847656 0.51046875 1.55847656 0.51046875 3.1484375 1.03125 C24.33890701 8.48063121 40.39398885 23.11956042 50.8125 42.875 C60.46847643 63.12790649 61.96383524 85.80823283 54.75 107.125 C46.34600986 129.22528895 30.845184 145.61070056 9.61328125 155.87109375 C-9.4877023 164.12249023 -33.38064077 165.43822352 -53 158 C-73.8916889 149.324765 -90.11535766 135.44617078 -99.875 114.80859375 C-105.62227193 100.46036973 -107.30638342 87.33719334 -107 72 C-106.98324219 71.05253906 -106.96648437 70.10507813 -106.94921875 69.12890625 C-105.96616107 52.47310042 -96.87184477 36.15669916 -86 24 C-85.24976563 23.15566406 -84.49953125 22.31132813 -83.7265625 21.44140625 C-63.48348223 -0.07914995 -28.30365129 -10.11427308 0 0 Z " fill="#E03527" transform="translate(306,88)"/>
<path d="M0 0 C-0.36351562 0.47308594 -0.72703125 0.94617188 -1.1015625 1.43359375 C-16.17769406 21.26450526 -22.43695541 40.04641949 -21 65 C-20.41310279 69.2007052 -19.41327472 73.00721167 -18 77 C-17.68289063 77.96808594 -17.36578125 78.93617188 -17.0390625 79.93359375 C-13.79439068 88.78165272 -7.99289959 98.67140028 0 104 C0 104.99 0 105.98 0 107 C-13.19580078 118.15957501 -32.83102884 122.76977035 -49.87890625 122.296875 C-66.69909987 120.69695671 -66.69909987 120.69695671 -73 117 C-73.33 117.99 -73.66 118.98 -74 120 C-75.15336265 116.62752629 -76.29632867 113.25161655 -77.4375 109.875 C-77.92573242 108.44800781 -77.92573242 108.44800781 -78.42382812 106.9921875 C-82.08294081 96.12801789 -82.22663218 86.3449405 -82 75 C-81.98324219 74.05253906 -81.96648437 73.10507813 -81.94921875 72.12890625 C-80.96616107 55.47310042 -71.87184477 39.15669916 -61 27 C-60.24976563 26.15566406 -59.49953125 25.31132813 -58.7265625 24.44140625 C-43.45571506 8.20686455 -22.09449715 -0.46030202 0 0 Z " fill="#C02822" transform="translate(281,85)"/>
<path d="M0 0 C2.03891637 -0.00965282 4.07680062 -0.04067735 6.11547852 -0.07226562 C14.76915802 -0.10641927 22.54515922 0.22218835 29.75024414 5.42773438 C33.47470596 9.41822918 35.24550756 13.0508767 35.46899414 18.54492188 C35.11939191 23.73651501 33.75622779 27.16316586 30.37524414 31.24023438 C29.38524414 31.90023437 28.39524414 32.56023437 27.37524414 33.24023438 C27.91793945 33.59214844 28.46063477 33.9440625 29.01977539 34.30664062 C33.94986901 37.70884938 36.7756048 40.24158685 38.37524414 46.24023438 C39.26107243 53.09138735 38.43715512 58.5712745 34.37524414 64.24023438 C29.95135553 68.86988525 25.40343691 70.6181025 19.37524414 72.24023438 C18.76720947 72.41441895 18.1591748 72.58860352 17.53271484 72.76806641 C15.1954226 73.27958878 13.09880158 73.36968158 10.70727539 73.37304688 C9.81331055 73.37433594 8.9193457 73.375625 7.99829102 73.37695312 C7.07081055 73.37308594 6.14333008 73.36921875 5.18774414 73.36523438 C4.27959961 73.36910156 3.37145508 73.37296875 2.43579102 73.37695312 C-12.39377955 73.35572253 -12.39377955 73.35572253 -16.62475586 71.24023438 C-16.62475586 48.14023438 -16.62475586 25.04023437 -16.62475586 1.24023438 C-11.0823167 -0.14537541 -5.69404477 0.01628615 0 0 Z " fill="#F5F7F8" transform="translate(413.624755859375,90.759765625)"/>
<path d="M0 0 C9.36357721 3.88245884 15.14963037 16.22428444 19 25 C20.72417908 29.90727891 21.92102421 34.91339983 23 40 C23.15210938 40.71414062 23.30421875 41.42828125 23.4609375 42.1640625 C23.78066605 44.12564037 23.91776259 46.01259586 24 48 C24.0515625 49.18078125 24.103125 50.3615625 24.15625 51.578125 C24.67754967 69.5086616 20.16447684 86.03446982 7.76953125 99.40625 C5.87764244 101.30818424 3.9644057 103.17335782 2 105 C-5.61477503 102.61787354 -9.88414045 95.55994512 -13.80859375 88.95703125 C-16.97713055 82.84910371 -19.38826854 76.69042483 -21 70 C-21.18433594 69.27554688 -21.36867188 68.55109375 -21.55859375 67.8046875 C-24.80119941 47.20122851 -20.001466 26.0459621 -8 9 C-5.44001657 5.89376332 -2.77459657 2.91543903 0 0 Z " fill="#FDFCFC" transform="translate(281,85)"/>
<path d="M0 0 C1.32572021 0.00628418 1.32572021 0.00628418 2.67822266 0.01269531 C11.71002968 0.16867361 20.13733241 1.26673255 27.25 7.3125 C31.35508555 12.93361235 31.00851757 18.60383353 30.25 25.3125 C28.95656348 29.06763829 27.09000488 30.89249756 23.5 32.6875 C22.7575 32.89375 22.015 33.1 21.25 33.3125 C21.25 33.9725 21.25 34.6325 21.25 35.3125 C21.971875 35.395 22.69375 35.4775 23.4375 35.5625 C27.93629185 36.76217783 30.36219908 39.08794701 33.0625 42.8125 C35.04103317 48.64396618 35.55130583 54.87571793 33.3359375 60.7265625 C29.84500012 66.73998367 25.21021217 69.82643596 18.6875 72.0625 C12.99661466 73.49697936 7.39812024 73.59860596 1.5625 73.625 C0.22626587 73.63321777 0.22626587 73.63321777 -1.13696289 73.64160156 C-6.90689927 73.57934571 -10.86213754 72.78446561 -16.75 71.3125 C-16.75 48.5425 -16.75 25.7725 -16.75 2.3125 C-10.54816856 0.54054816 -6.24754331 -0.04019233 0 0 Z " fill="#F2F5F6" transform="translate(413.75,177.6875)"/>
<path d="M0 0 C0 26.07 0 52.14 0 79 C-28.08834378 83.68139063 -28.08834378 83.68139063 -38.01953125 77.61328125 C-41.43800659 74.82860607 -43.8237481 71.82100993 -46 68 C-46.50853516 67.12601563 -46.50853516 67.12601563 -47.02734375 66.234375 C-50.55245762 58.7617834 -50.45386633 48.14797598 -47.75 40.4375 C-44.25145287 33.56535385 -40.4068917 27.90761231 -33 25 C-29.50390625 24.734375 -29.50390625 24.734375 -25.5625 24.75 C-24.26441406 24.74484375 -22.96632813 24.7396875 -21.62890625 24.734375 C-18 25 -18 25 -13 27 C-13 18.42 -13 9.84 -13 1 C-8 0 -8 0 0 0 Z " fill="#F9FAFB" transform="translate(606,83)"/>
<path d="M0 0 C0.33 8.25 0.66 16.5 1 25 C3.64 24.9175 6.28 24.835 9 24.75 C21.32897594 24.64279151 21.32897594 24.64279151 26 29 C29.63553073 33.57432601 32.13225711 38.07449669 32.11352539 44.01245117 C32.11344986 44.81305466 32.11337433 45.61365814 32.11329651 46.43852234 C32.10813522 47.29798965 32.10297394 48.15745697 32.09765625 49.04296875 C32.0962413 49.9265657 32.09482635 50.81016266 32.09336853 51.72053528 C32.08777069 54.54289128 32.07521861 57.36516797 32.0625 60.1875 C32.05748472 62.10091031 32.05292186 64.01432187 32.04882812 65.92773438 C32.03780197 70.61852014 32.02053883 75.30924663 32 80 C27.71 80 23.42 80 19 80 C18.97494385 78.86981445 18.9498877 77.73962891 18.92407227 76.57519531 C18.82983044 72.37814183 18.72965074 68.18124737 18.62768555 63.984375 C18.58440014 62.16865766 18.54272056 60.35290129 18.50268555 58.53710938 C18.44482798 55.92566167 18.38117828 53.31440923 18.31640625 50.703125 C18.29969376 49.89256653 18.28298126 49.08200806 18.26576233 48.24688721 C18.20407654 43.02508713 18.20407654 43.02508713 17 38 C11.61483519 36.20494506 5.67646212 37 0 37 C0 51.19 0 65.38 0 80 C-4.29 80 -8.58 80 -13 80 C-13 53.93 -13 27.86 -13 1 C-7 0 -7 0 0 0 Z " fill="#F6F8F9" transform="translate(628,83)"/>
<path d="M0 0 C3.79710509 3.62069092 5.80624605 7.77829043 6.12025452 12.99957275 C6.11803391 13.70128601 6.11581329 14.40299927 6.11352539 15.12597656 C6.11344986 15.92650452 6.11337433 16.72703247 6.11329651 17.55181885 C6.10813522 18.40612488 6.10297394 19.26043091 6.09765625 20.140625 C6.0962413 21.02280701 6.09482635 21.90498901 6.09336853 22.81390381 C6.08778001 25.62597065 6.07522961 28.4379573 6.0625 31.25 C6.05748352 33.15885302 6.05292087 35.06770728 6.04882812 36.9765625 C6.03781434 41.65107247 6.02055758 46.32552265 6 51 C-5.47835338 53.10748521 -18.80875599 55.43426649 -30 51 C-34.38561523 47.49150781 -37.47052433 43.53199011 -38.3203125 37.86328125 C-38.61559898 32.06582344 -37.46407286 28.64915042 -34 24 C-29.57382821 20.56745861 -26.13567658 18.86486123 -20.55078125 18.90234375 C-19.70322266 18.90556641 -18.85566406 18.90878906 -17.98242188 18.91210938 C-17.10134766 18.92048828 -16.22027344 18.92886719 -15.3125 18.9375 C-13.97348633 18.94426758 -13.97348633 18.94426758 -12.60742188 18.95117188 C-10.40488013 18.96295017 -8.20247401 18.97939836 -6 19 C-6.42423244 17.53775201 -6.86490245 16.08026588 -7.3125 14.625 C-7.55613281 13.81289062 -7.79976563 13.00078125 -8.05078125 12.1640625 C-8.91368185 9.66815371 -8.91368185 9.66815371 -12 8 C-18.3503222 7.45223829 -24.73790453 7.86143719 -31 9 C-32.20272819 6.59454362 -32.10071472 5.05003047 -32.0625 2.375 C-32.05347656 1.55773437 -32.04445313 0.74046875 -32.03515625 -0.1015625 C-32.02355469 -0.72804688 -32.01195312 -1.35453125 -32 -2 C-20.95437775 -4.68353512 -10.29316325 -5.76888071 0 0 Z " fill="#FAFBFC" transform="translate(492,111)"/>
<path d="M0 0 C4.43444864 4.32629136 5.03421255 8.24304422 5.11352539 14.23950195 C5.11336816 15.90577011 5.107784 17.57204387 5.09765625 19.23828125 C5.0962413 20.11904831 5.09482635 20.99981537 5.09336853 21.90727234 C5.08778937 24.70905003 5.07524071 27.51074662 5.0625 30.3125 C5.05748231 32.21679572 5.05291987 34.12109269 5.04882812 36.02539062 C5.03782677 40.68362481 5.02057649 45.34179867 5 50 C-1.76102812 51.56633789 -8.18809539 52.36427835 -15.125 52.375 C-15.96675781 52.39949219 -16.80851563 52.42398438 -17.67578125 52.44921875 C-25.18141809 52.48412869 -30.16417238 50.2450302 -36 45.625 C-39.71270583 40.71667704 -38.71829953 33.76007816 -38 28 C-35.91224396 22.95458957 -33.03758953 21.11479269 -28.32226562 18.82470703 C-24.2479536 17.37779513 -20.27225996 17.57937211 -16 17.75 C-15.12988281 17.76804688 -14.25976562 17.78609375 -13.36328125 17.8046875 C-11.24170093 17.85131564 -9.12069665 17.92303923 -7 18 C-7.39753821 16.53633658 -7.81881384 15.0791065 -8.25 13.625 C-8.48203125 12.81289062 -8.7140625 12.00078125 -8.953125 11.1640625 C-10.24053755 8.50276939 -11.25352219 7.9717501 -14 7 C-20.0301089 6.45516627 -26.05374481 6.94288797 -32 8 C-33.28317892 4.15046324 -33.06643637 1.05261865 -33 -3 C-21.40289323 -5.93199991 -10.22375519 -7.1762897 0 0 Z " fill="#FAFBFC" transform="translate(703,112)"/>
<path d="M0 0 C0.95003906 -0.01611328 1.90007813 -0.03222656 2.87890625 -0.04882812 C9.49087485 -0.0534134 14.56197357 0.53708435 19.80078125 4.92578125 C20.48720703 5.76689453 20.48720703 5.76689453 21.1875 6.625 C21.65800781 7.17800781 22.12851562 7.73101562 22.61328125 8.30078125 C26.05738212 13.7921495 26.14888983 19.17163578 26.0703125 25.4296875 C26.0674826 26.28684357 26.06465271 27.14399963 26.06173706 28.02713013 C26.05059999 30.74739932 26.0255076 33.46733141 26 36.1875 C25.98996182 38.03905772 25.98083744 39.89062064 25.97265625 41.7421875 C25.95068188 46.2657536 25.916197 50.78906977 25.875 55.3125 C21.585 55.3125 17.295 55.3125 12.875 55.3125 C12.86041748 54.21784424 12.84583496 53.12318848 12.83081055 51.99536133 C12.77271261 47.92293095 12.69548073 43.85104685 12.61254883 39.77905273 C12.57935346 38.01872645 12.55130476 36.25829512 12.52856445 34.49780273 C12.4949188 31.96292475 12.4425994 29.42900477 12.38671875 26.89453125 C12.38032883 26.11100784 12.3739389 25.32748444 12.36735535 24.5202179 C12.24573176 19.97095119 11.7152732 16.92497928 8.875 13.3125 C4.0675983 10.90879915 -1.76382058 11.69544139 -7.125 11.3125 C-7.125 25.8325 -7.125 40.3525 -7.125 55.3125 C-11.415 55.3125 -15.705 55.3125 -20.125 55.3125 C-20.125 37.8225 -20.125 20.3325 -20.125 2.3125 C-12.8324343 0.69192985 -7.26079687 -0.02483173 0 0 Z " fill="#F7F8F9" transform="translate(736.125,107.6875)"/>
<path d="M0 0 C0.98935547 -0.03287109 1.97871094 -0.06574219 2.99804688 -0.09960938 C9.76772481 -0.14902308 14.25235502 0.97496135 19.4375 5.4375 C21.27734375 7.5 21.27734375 7.5 22.375 9.4375 C22.75527344 10.076875 23.13554688 10.71625 23.52734375 11.375 C25.75011462 16.41200867 25.57080754 21.6073867 25.53515625 27.01953125 C25.5337413 27.83371017 25.53232635 28.6478891 25.53086853 29.48674011 C25.52529317 32.07453156 25.51274524 34.66223492 25.5 37.25 C25.49498181 39.00976437 25.49041946 40.76953011 25.48632812 42.52929688 C25.47533181 46.83206494 25.45808421 51.13476756 25.4375 55.4375 C21.1475 55.4375 16.8575 55.4375 12.4375 55.4375 C12.42291748 54.34284424 12.40833496 53.24818848 12.39331055 52.12036133 C12.33521261 48.04793095 12.25798073 43.97604685 12.17504883 39.90405273 C12.14185346 38.14372645 12.11380476 36.38329512 12.09106445 34.62280273 C12.0574188 32.08792475 12.0050994 29.55400477 11.94921875 27.01953125 C11.94282883 26.23600784 11.9364389 25.45248444 11.92985535 24.6452179 C11.80823176 20.09595119 11.2777732 17.04997928 8.4375 13.4375 C3.6300983 11.03379915 -2.20132058 11.82044139 -7.5625 11.4375 C-7.5625 25.9575 -7.5625 40.4775 -7.5625 55.4375 C-11.8525 55.4375 -16.1425 55.4375 -20.5625 55.4375 C-20.5625 37.9475 -20.5625 20.4575 -20.5625 2.4375 C-13.19665691 0.80064598 -7.36849569 0.04337244 0 0 Z " fill="#F7F9F9" transform="translate(526.5625,107.5625)"/>
<path d="M0 0 C0.79470703 -0.020625 1.58941406 -0.04125 2.40820312 -0.0625 C8.15970115 -0.10055789 12.38040461 0.74961812 16.83203125 4.71484375 C20.27224427 9.05250365 21.31781827 12.02688048 21.30102539 17.46777344 C21.30094986 18.28832214 21.30087433 19.10887085 21.30079651 19.95428467 C21.29563522 20.83046448 21.29047394 21.70664429 21.28515625 22.609375 C21.2837413 23.51375305 21.28232635 24.4181311 21.28086853 25.34991455 C21.27527911 28.23331027 21.26272853 31.11662782 21.25 34 C21.24498363 35.95703013 21.24042096 37.91406147 21.23632812 39.87109375 C21.22531313 44.66409253 21.20805574 49.45703302 21.1875 54.25 C15.11697316 55.17907162 9.25454863 55.50099951 3.125 55.5625 C2.15755859 55.59150391 1.19011719 55.62050781 0.19335938 55.65039062 C-5.68820854 55.7027249 -9.18547816 55.26106331 -13.8125 51.25 C-17.44083663 47.43069828 -18.12250458 44.36720994 -18.3125 39.25 C-18.09572714 34.09208115 -17.63241503 30.97896467 -13.8125 27.25 C-6.10828356 21.50629987 1.95012547 21.46622277 11.1875 22.25 C12.1775 22.58 13.1675 22.91 14.1875 23.25 C13.91261288 14.90565734 13.91261288 14.90565734 9.1875 8.25 C6.83897472 7.07573736 5.44975935 7.13491827 2.8359375 7.15234375 C1.55976563 7.15717773 1.55976563 7.15717773 0.2578125 7.16210938 C-1.07636719 7.17467773 -1.07636719 7.17467773 -2.4375 7.1875 C-3.78328125 7.19426758 -3.78328125 7.19426758 -5.15625 7.20117188 C-7.37506648 7.21297409 -9.59375018 7.22943845 -11.8125 7.25 C-11.8125 5.27 -11.8125 3.29 -11.8125 1.25 C-7.82855124 -0.07798292 -4.17195725 0.02667918 0 0 Z " fill="#F6F8F9" transform="translate(469.8125,195.75)"/>
<path d="M0 0 C0 15.84 0 31.68 0 48 C5.97858895 42.76873466 11.4662054 37.54406995 16.7109375 31.63476562 C20.92452259 27.19715508 20.92452259 27.19715508 24.21875 26.59326172 C26.4375 26.58984375 26.4375 26.58984375 30 27 C28.60699285 30.18651479 27.00047444 32.1870171 24.4453125 34.53125 C23.74792969 35.17707031 23.05054688 35.82289063 22.33203125 36.48828125 C21.60371094 37.15214844 20.87539063 37.81601563 20.125 38.5 C13.87969063 44.06815522 13.87969063 44.06815522 8 50 C8 50.66 8 51.32 8 52 C9.45004243 53.46641754 9.45004243 53.46641754 11.375 55 C19.64619387 62.07077282 27.48929016 69.51136053 33 79 C33 79.66 33 80.32 33 81 C29.64938553 81.73104316 28.19379701 82.03798403 25 81 C22.44281621 78.28524326 20.39382703 75.32283604 18.296875 72.25390625 C13.47967862 65.42954471 7.92746438 60.61830959 1 56 C0.67 63.92 0.34 71.84 0 80 C-2.31 80 -4.62 80 -7 80 C-7 53.93 -7 27.86 -7 1 C-4 0 -4 0 0 0 Z " fill="#F1F3F5" transform="translate(561,170)"/>
<path d="M0 0 C0.84626953 -0.02835938 1.69253906 -0.05671875 2.56445312 -0.0859375 C8.88451551 -0.10542883 13.04411507 1.48767316 17.9375 5.5 C25.31723341 13.85075096 24.23144267 25.80628285 24.14331055 36.29858398 C24.12478453 38.58914051 24.12280322 40.87929743 24.12304688 43.16992188 C24.08533935 54.35216065 24.08533935 54.35216065 22.9375 55.5 C19.9375 55.625 19.9375 55.625 16.9375 55.5 C14.86295707 53.42545707 15.77610532 48.94634994 15.76171875 46.08203125 C15.73850868 44.33527456 15.71439088 42.58852975 15.68945312 40.84179688 C15.65440984 38.08121955 15.62504184 35.32107484 15.61157227 32.56030273 C15.59604487 29.90034025 15.55579121 27.24165435 15.51171875 24.58203125 C15.51362717 23.76305862 15.51553558 22.944086 15.51750183 22.10029602 C15.40511889 16.8042969 14.52950308 13.64888436 10.9375 9.5 C8.06627253 7.73590722 5.95822362 7.25684681 2.609375 7.3046875 C1.81015625 7.31113281 1.0109375 7.31757813 0.1875 7.32421875 C-0.6375 7.34097656 -1.4625 7.35773438 -2.3125 7.375 C-3.57320312 7.38853516 -3.57320312 7.38853516 -4.859375 7.40234375 C-6.92720604 7.42584183 -8.99488995 7.46171092 -11.0625 7.5 C-11.06027939 8.08659897 -11.05805878 8.67319794 -11.05577087 9.27757263 C-11.0337179 15.36025384 -11.01859336 21.44292377 -11.00756836 27.52563477 C-11.00252675 29.79842591 -10.99569363 32.0712138 -10.98706055 34.34399414 C-10.97498739 37.60303551 -10.96927013 40.86203417 -10.96484375 44.12109375 C-10.95968246 45.14400009 -10.95452118 46.16690643 -10.94920349 47.22080994 C-10.94912796 48.16170975 -10.94905243 49.10260956 -10.94897461 50.07202148 C-10.946754 50.90475082 -10.94453339 51.73748016 -10.94224548 52.59544373 C-11.0625 54.5 -11.0625 54.5 -12.0625 55.5 C-15.0625 55.625 -15.0625 55.625 -18.0625 55.5 C-19.0625 54.5 -19.0625 54.5 -19.18275452 52.44358826 C-19.18053391 51.53979935 -19.17831329 50.63601044 -19.17602539 49.70483398 C-19.17594986 48.68385117 -19.17587433 47.66286835 -19.17579651 46.61094666 C-19.17063522 45.5005452 -19.16547394 44.39014374 -19.16015625 43.24609375 C-19.1587413 42.11551041 -19.15732635 40.98492706 -19.15586853 39.82008362 C-19.15025019 36.19252935 -19.13769458 32.56503576 -19.125 28.9375 C-19.11998736 26.48502693 -19.11542405 24.0325529 -19.11132812 21.58007812 C-19.1002748 15.55336455 -19.08351884 9.52668661 -19.0625 3.5 C-12.49306701 1.1571386 -6.98514909 -0.02137766 0 0 Z " fill="#E6EBEE" transform="translate(520.0625,195.5)"/>
<path d="M0 0 C5.4140625 -0.12375 5.4140625 -0.12375 10.9375 -0.25 C12.05632568 -0.28641602 13.17515137 -0.32283203 14.32788086 -0.36035156 C21.89755657 -0.44332158 28.38784669 0.56084254 34.0390625 5.94140625 C36.22054197 10.61473829 35.69239537 16.05263801 34 20.8125 C29.76975511 25.43933035 24.36701278 28.71273219 18.03295898 29.12939453 C17.02471069 29.13108643 17.02471069 29.13108643 15.99609375 29.1328125 C15.25552734 29.13410156 14.51496094 29.13539063 13.75195312 29.13671875 C12.60629883 29.13091797 12.60629883 29.13091797 11.4375 29.125 C10.66986328 29.12886719 9.90222656 29.13273437 9.11132812 29.13671875 C5.82072861 29.130981 3.14241093 29.04747031 0 28 C0 18.76 0 9.52 0 0 Z " fill="#033453" transform="translate(405,216)"/>
<path d="M0 0 C22.54420432 -0.50098232 22.54420432 -0.50098232 28.640625 4.2890625 C31.17931603 6.89749779 31.98870022 8.92090151 32.5 12.5 C31.79412165 17.44114848 30.6626158 20.73116163 26.625 23.8125 C20.93988396 26.38433821 15.30775029 26.12137361 9.1875 26.0625 C6.155625 26.041875 3.12375 26.02125 0 26 C0 17.42 0 8.84 0 0 Z " fill="#053655" transform="translate(405,184)"/>
<path d="M0 0 C1.65 0.66 3.3 1.32 5 2 C5 12.56 5 23.12 5 34 C-8 34 -8 34 -11.5625 32.5 C-16.28737015 27.65397933 -18.22256861 23.24054574 -18.4375 16.4375 C-18.18331857 10.3202002 -16.95995326 6.3163084 -12.9375 1.5625 C-8.69003697 -0.69678885 -4.72017172 -0.63427307 0 0 Z " fill="#033453" transform="translate(588,119)"/>
<path d="M0 0 C3.01125 -0.061875 6.0225 -0.12375 9.125 -0.1875 C10.06230957 -0.21481201 10.99961914 -0.24212402 11.96533203 -0.27026367 C17.08138781 -0.32093387 20.57029547 0.15036141 25 3 C27.47035712 5.47035712 27.35042281 6.3960007 27.4375 9.8125 C27.36353204 13.74987129 27.17219667 14.76562121 24.75 18.0625 C21.02800137 20.68481721 18.15855345 21.12970395 13.671875 21.09765625 C12.9509668 21.09515869 12.23005859 21.09266113 11.48730469 21.09008789 C10.58399414 21.08098389 9.68068359 21.07187988 8.75 21.0625 C5.8625 21.041875 2.975 21.02125 0 21 C0 14.07 0 7.14 0 0 Z " fill="#013352" transform="translate(411,131)"/>
<path d="M0 0 C1.14210938 -0.00257813 2.28421875 -0.00515625 3.4609375 -0.0078125 C6.625 0.125 6.625 0.125 10.625 1.125 C10.625 7.725 10.625 14.325 10.625 21.125 C7.923125 21.16625 5.22125 21.2075 2.4375 21.25 C1.17450073 21.27731201 1.17450073 21.27731201 -0.11401367 21.30517578 C-4.29730037 21.33600471 -7.60935032 21.17899074 -11.375 19.125 C-14.29589369 15.70050395 -15.01239838 12.45566149 -14.87109375 8.05859375 C-13.93894478 4.42541471 -11.41770259 3.13318371 -8.375 1.125 C-5.55170081 -0.28664959 -3.1459921 -0.00706965 0 0 Z " fill="#053654" transform="translate(473.375,223.875)"/>
<path d="M0 0 C16.19192867 -0.62881276 16.19192867 -0.62881276 23 4 C24.60243984 7.20487969 24.63159396 10.53309837 24 14 C20.48976651 17.60260806 18.0973377 18.97262131 13.0859375 19.09765625 C11.5155917 19.09193315 9.94527012 19.0789449 8.375 19.0625 C5.61125 19.041875 2.8475 19.02125 0 19 C0 12.73 0 6.46 0 0 Z " fill="#053654" transform="translate(411,101)"/>
<path d="M0 0 C0 4.95 0 9.9 0 15 C-13.48539786 15.40864842 -13.48539786 15.40864842 -18 12 C-19.43735246 9.12529507 -19.38172649 7.18105412 -19 4 C-13.48909916 -1.81301071 -7.52744595 -0.28139985 0 0 Z " fill="#093A57" transform="translate(696,139)"/>
<path d="M0 0 C1.88138672 0.05414063 1.88138672 0.05414063 3.80078125 0.109375 C5.22970703 0.17898437 5.22970703 0.17898437 6.6875 0.25 C6.71435412 2.56243792 6.73382841 4.8749627 6.75 7.1875 C6.76160156 8.47527344 6.77320313 9.76304687 6.78515625 11.08984375 C6.6875 14.25 6.6875 14.25 5.6875 15.25 C-5.57648387 16.36367072 -5.57648387 16.36367072 -10.625 13.125 C-12.62280588 9.72133072 -13.13590122 8.11998573 -12.3125 4.25 C-8.37714468 0.15220975 -5.56698229 -0.20811149 0 0 Z " fill="#0B3A58" transform="translate(479.3125,138.75)"/>
</svg>
